<mxfile modified="2023-07-17T14:08:32.362Z" host="app.diagrams.net" agent="Mozilla/5.0 (Windows NT 10.0; Win64; x64) AppleWebKit/537.36 (KHTML, like Gecko) Chrome/114.0.0.0 Safari/537.36" etag="gtb90mYY1jZqslix-XxB" version="21.6.2" type="github">
  <diagram id="WI9T0HZ2pTsCkuznbFz-" name="Page-1">
    <mxGraphModel dx="590" dy="975" grid="1" gridSize="10" guides="1" tooltips="1" connect="1" arrows="1" fold="1" page="1" pageScale="1" pageWidth="1169" pageHeight="827" math="0" shadow="0">
      <root>
        <mxCell id="0" />
        <mxCell id="1" parent="0" />
        <mxCell id="e_-w4jl6vJnBpZlzhAYl-57" style="edgeStyle=orthogonalEdgeStyle;rounded=0;orthogonalLoop=1;jettySize=auto;html=1;" edge="1" parent="1" source="RLjyjs_sm2IHfBNOWAbh-40" target="e_-w4jl6vJnBpZlzhAYl-49">
          <mxGeometry relative="1" as="geometry" />
        </mxCell>
        <mxCell id="RLjyjs_sm2IHfBNOWAbh-40" value="Access from the&lt;br&gt;internet for extranet&lt;br&gt;scenarios" style="aspect=fixed;html=1;perimeter=none;align=center;shadow=0;dashed=0;image;fontSize=12;image=img/lib/mscae/PersonWithFriend.svg;labelBackgroundColor=#ffffff;fillColor=#4D9900;" parent="1" vertex="1">
          <mxGeometry x="980" y="680.5" width="57.58" height="57" as="geometry" />
        </mxCell>
        <mxCell id="e_-w4jl6vJnBpZlzhAYl-26" style="edgeStyle=orthogonalEdgeStyle;rounded=0;orthogonalLoop=1;jettySize=auto;html=1;exitX=0;exitY=0;exitDx=0;exitDy=0;" edge="1" parent="1" source="RLjyjs_sm2IHfBNOWAbh-58" target="e_-w4jl6vJnBpZlzhAYl-21">
          <mxGeometry relative="1" as="geometry" />
        </mxCell>
        <mxCell id="e_-w4jl6vJnBpZlzhAYl-27" style="edgeStyle=orthogonalEdgeStyle;rounded=0;orthogonalLoop=1;jettySize=auto;html=1;exitX=0;exitY=0;exitDx=0;exitDy=0;" edge="1" parent="1" source="RLjyjs_sm2IHfBNOWAbh-58" target="e_-w4jl6vJnBpZlzhAYl-9">
          <mxGeometry relative="1" as="geometry" />
        </mxCell>
        <mxCell id="RLjyjs_sm2IHfBNOWAbh-58" value="&lt;a style=&quot;font-size: 13px; text-decoration-line: none; vertical-align: middle; padding: 1px; cursor: pointer; font-family: az_ea_font, &amp;quot;Segoe UI&amp;quot;, az_font, system-ui, -apple-system, BlinkMacSystemFont, Roboto, Oxygen, Ubuntu, Cantarell, &amp;quot;Open Sans&amp;quot;, &amp;quot;Helvetica Neue&amp;quot;, sans-serif; text-align: left; background-color: rgb(237, 235, 233); outline: none !important;&quot; href=&quot;https://portal.azure.com/#@www.comunidadunir.net/resource/subscriptions/c8b29887-4024-4277-8a83-a951bff463b3/resourceGroups/cp2_resource_group/providers/Microsoft.Network/virtualNetworks/vnet&quot; tabindex=&quot;0&quot; class=&quot;fxc-gcflink-link&quot;&gt;vnet&lt;/a&gt;" style="aspect=fixed;html=1;perimeter=none;align=center;shadow=0;dashed=0;image;fontSize=12;image=img/lib/mscae/Virtual_Network.svg;labelBackgroundColor=none;fillColor=#4D9900;" parent="1" vertex="1">
          <mxGeometry x="626.4999999999995" y="50" width="50" height="28.499999999999996" as="geometry" />
        </mxCell>
        <mxCell id="e_-w4jl6vJnBpZlzhAYl-36" style="edgeStyle=orthogonalEdgeStyle;rounded=0;orthogonalLoop=1;jettySize=auto;html=1;exitX=0;exitY=0;exitDx=0;exitDy=0;" edge="1" parent="1" source="e_-w4jl6vJnBpZlzhAYl-3" target="e_-w4jl6vJnBpZlzhAYl-14">
          <mxGeometry relative="1" as="geometry" />
        </mxCell>
        <mxCell id="e_-w4jl6vJnBpZlzhAYl-37" style="edgeStyle=orthogonalEdgeStyle;rounded=0;orthogonalLoop=1;jettySize=auto;html=1;exitX=0;exitY=0;exitDx=0;exitDy=0;" edge="1" parent="1" source="e_-w4jl6vJnBpZlzhAYl-3" target="e_-w4jl6vJnBpZlzhAYl-17">
          <mxGeometry relative="1" as="geometry" />
        </mxCell>
        <mxCell id="e_-w4jl6vJnBpZlzhAYl-44" style="edgeStyle=orthogonalEdgeStyle;rounded=0;orthogonalLoop=1;jettySize=auto;html=1;exitX=0;exitY=0;exitDx=0;exitDy=0;" edge="1" parent="1" source="e_-w4jl6vJnBpZlzhAYl-3" target="e_-w4jl6vJnBpZlzhAYl-43">
          <mxGeometry relative="1" as="geometry">
            <mxPoint x="1110" y="390" as="targetPoint" />
          </mxGeometry>
        </mxCell>
        <mxCell id="e_-w4jl6vJnBpZlzhAYl-3" value="&lt;div style=&quot;border-color: var(--border-color); font-weight: inherit; padding: 2px 0px; overflow: hidden; text-overflow: ellipsis; outline: none !important;&quot; class=&quot;fxc-gcflink fxc-gc-text&quot;&gt;&lt;a style=&quot;border-color: var(--border-color); font-weight: inherit; text-decoration-line: none; vertical-align: middle; padding: 1px; cursor: pointer; outline: none !important;&quot; href=&quot;https://portal.azure.com/#@www.comunidadunir.net/resource/subscriptions/c8b29887-4024-4277-8a83-a951bff463b3/resourceGroups/MC_cp2_resource_group_aks_cluster_kubernetes_uksouth/providers/Microsoft.Network/virtualNetworks/aks-vnet-28408381&quot; tabindex=&quot;0&quot; class=&quot;fxc-gcflink-link&quot;&gt;aks-vnet-28408381&lt;/a&gt;&lt;/div&gt;&lt;div style=&quot;border-color: var(--border-color);&quot;&gt;&lt;br style=&quot;border-color: var(--border-color); color: rgb(41, 40, 39); font-family: az_ea_font, &amp;quot;Segoe UI&amp;quot;, az_font, system-ui, -apple-system, BlinkMacSystemFont, Roboto, Oxygen, Ubuntu, Cantarell, &amp;quot;Open Sans&amp;quot;, &amp;quot;Helvetica Neue&amp;quot;, sans-serif; font-size: 13px; text-align: start; background-color: rgb(225, 223, 221);&quot;&gt;&lt;/div&gt;" style="aspect=fixed;html=1;perimeter=none;align=center;shadow=0;dashed=0;image;fontSize=12;image=img/lib/mscae/Virtual_Network.svg;labelBackgroundColor=none;fillColor=#4D9900;" vertex="1" parent="1">
          <mxGeometry x="692.4999999999995" y="262" width="50" height="28.499999999999996" as="geometry" />
        </mxCell>
        <mxCell id="e_-w4jl6vJnBpZlzhAYl-71" style="edgeStyle=orthogonalEdgeStyle;rounded=0;orthogonalLoop=1;jettySize=auto;html=1;exitX=0.5;exitY=1;exitDx=0;exitDy=0;" edge="1" parent="1" source="e_-w4jl6vJnBpZlzhAYl-9" target="e_-w4jl6vJnBpZlzhAYl-70">
          <mxGeometry relative="1" as="geometry" />
        </mxCell>
        <mxCell id="e_-w4jl6vJnBpZlzhAYl-9" value="podmanVM_nic" style="shape=image;verticalLabelPosition=bottom;labelBackgroundColor=#ffffff;verticalAlign=top;aspect=fixed;imageAspect=0;image=data:image/svg+xml,PHN2ZyB4bWxuczpjYz0iaHR0cDovL2NyZWF0aXZlY29tbW9ucy5vcmcvbnMjIiB4bWxuczpkYz0iaHR0cDovL3B1cmwub3JnL2RjL2VsZW1lbnRzLzEuMS8iIHhtbG5zOmlua3NjYXBlPSJodHRwOi8vd3d3Lmlua3NjYXBlLm9yZy9uYW1lc3BhY2VzL2lua3NjYXBlIiB4bWxuczpyZGY9Imh0dHA6Ly93d3cudzMub3JnLzE5OTkvMDIvMjItcmRmLXN5bnRheC1ucyMiIHhtbG5zOnNvZGlwb2RpPSJodHRwOi8vc29kaXBvZGkuc291cmNlZm9yZ2UubmV0L0RURC9zb2RpcG9kaS0wLmR0ZCIgeG1sbnM6c3ZnPSJodHRwOi8vd3d3LnczLm9yZy8yMDAwL3N2ZyIgeG1sbnM9Imh0dHA6Ly93d3cudzMub3JnLzIwMDAvc3ZnIiB4bWxuczp4bGluaz0iaHR0cDovL3d3dy53My5vcmcvMTk5OS94bGluayIgdmVyc2lvbj0iMS4xIiBpZD0ic3ZnODc0MzQiIGlua3NjYXBlOnZlcnNpb249IjAuOTIuMyAoMjQwNTU0NiwgMjAxOC0wMy0xMSkiIHNvZGlwb2RpOmRvY25hbWU9Im5ldHdvcmtfaW50ZXJmYWNlLnN2ZyIgeD0iMHB4IiB5PSIwcHgiIHZpZXdCb3g9IjAgMCAzMy44OCAzNy44OSIgc3R5bGU9ImVuYWJsZS1iYWNrZ3JvdW5kOm5ldyAwIDAgMzMuODggMzcuODk7IiB4bWw6c3BhY2U9InByZXNlcnZlIj4mI3hhOzxzb2RpcG9kaTpuYW1lZHZpZXcgYm9yZGVyY29sb3I9IiM2NjY2NjYiIGJvcmRlcm9wYWNpdHk9IjEiIGZpdC1tYXJnaW4tYm90dG9tPSIwIiBmaXQtbWFyZ2luLWxlZnQ9IjAiIGZpdC1tYXJnaW4tcmlnaHQ9IjAiIGZpdC1tYXJnaW4tdG9wPSIwIiBncmlkdG9sZXJhbmNlPSIxMCIgZ3VpZGV0b2xlcmFuY2U9IjEwIiBpZD0ibmFtZWR2aWV3ODc0MzYiIGlua3NjYXBlOmN1cnJlbnQtbGF5ZXI9InN2Zzg3NDM0IiBpbmtzY2FwZTpjeD0iMTMuMTgxMzciIGlua3NjYXBlOmN5PSIyMC4yOTk0NTQiIGlua3NjYXBlOnBhZ2VvcGFjaXR5PSIwIiBpbmtzY2FwZTpwYWdlc2hhZG93PSIyIiBpbmtzY2FwZTp3aW5kb3ctaGVpZ2h0PSIxMDE3IiBpbmtzY2FwZTp3aW5kb3ctbWF4aW1pemVkPSIxIiBpbmtzY2FwZTp3aW5kb3ctd2lkdGg9IjE5MjAiIGlua3NjYXBlOndpbmRvdy14PSItOCIgaW5rc2NhcGU6d2luZG93LXk9Ii04IiBpbmtzY2FwZTp6b29tPSIxMi4xMzQ5MTIiIG9iamVjdHRvbGVyYW5jZT0iMTAiIHBhZ2Vjb2xvcj0iI2ZmZmZmZiIgc2hvd2dyaWQ9ImZhbHNlIj4mI3hhOwk8L3NvZGlwb2RpOm5hbWVkdmlldz4mI3hhOzxnIGlkPSJnODc0MzIiIHRyYW5zZm9ybT0idHJhbnNsYXRlKC0yLjQ5Mzc1NjFlLTUpIj4mI3hhOwk8dGl0bGUgaWQ9InRpdGxlODczMzciPlBhZ2UtMTwvdGl0bGU+JiN4YTsJPGcgaWQ9Imdyb3VwNDY5MC0xIj4mI3hhOwkJPHRpdGxlIGlkPSJ0aXRsZTg3MzM5Ij5OZXR3b3JrIEludGVyZmFjZTwvdGl0bGU+JiN4YTsJCTxnIGlkPSJzaGFwZTQ2OTEtMiI+JiN4YTsJCQk8dGl0bGUgaWQ9InRpdGxlODczNDEiPlNoZWV0LjQ2OTE8L3RpdGxlPiYjeGE7CQkJPHBhdGggaWQ9InBhdGg4NzM0MyIgaW5rc2NhcGU6Y29ubmVjdG9yLWN1cnZhdHVyZT0iMCIgc3R5bGU9ImZpbGw6IzdGQkEwMDsiIGQ9Ik0wLDB2MzcuODloMzAuMzVWMEgweiIvPiYjeGE7CQk8L2c+JiN4YTsJCTxnIGlkPSJzaGFwZTQ2OTItNCIgdHJhbnNmb3JtPSJ0cmFuc2xhdGUoMzAuMzQ3NCwtMjguMjI2KSI+JiN4YTsJCQk8dGl0bGUgaWQ9InRpdGxlODczNDYiPlNoZWV0LjQ2OTI8L3RpdGxlPiYjeGE7CQkJPHBhdGggaWQ9InBhdGg4NzM0OCIgaW5rc2NhcGU6Y29ubmVjdG9yLWN1cnZhdHVyZT0iMCIgc3R5bGU9ImZpbGw6I0ZDRDExNjsiIGQ9Ik0wLDMwLjk5djYuOWgzLjUzdi02LjlIMHoiLz4mI3hhOwkJPC9nPiYjeGE7CQk8ZyBpZD0ic2hhcGU0NjkzLTYiIHRyYW5zZm9ybT0idHJhbnNsYXRlKDMwLjM0NzQsLTguNDM3MTMpIj4mI3hhOwkJCTx0aXRsZSBpZD0idGl0bGU4NzM1MSI+U2hlZXQuNDY5MzwvdGl0bGU+JiN4YTsJCQk8cGF0aCBpZD0icGF0aDg3MzUzIiBpbmtzY2FwZTpjb25uZWN0b3ItY3VydmF0dXJlPSIwIiBzdHlsZT0iZmlsbDojRkNEMTE2OyIgZD0iTTAsMjAuNHYxNy40OWgzLjUzVjIwLjRIMHoiLz4mI3hhOwkJPC9nPiYjeGE7CQk8ZyBpZD0ic2hhcGU0Njk0LTgiIHRyYW5zZm9ybT0idHJhbnNsYXRlKDEyLjEwODMsLTI1LjE1OCkiPiYjeGE7CQkJPHRpdGxlIGlkPSJ0aXRsZTg3MzU2Ij5TaGVldC40Njk0PC90aXRsZT4mI3hhOwkJCTxwYXRoIGlkPSJwYXRoODczNTgiIGlua3NjYXBlOmNvbm5lY3Rvci1jdXJ2YXR1cmU9IjAiIHN0eWxlPSJmaWxsOiMyRDMyMzk7IiBkPSJNMCwyOC44NHY5LjA1aDE0LjQxdi05LjA1SDB6Ii8+JiN4YTsJCTwvZz4mI3hhOwkJPGcgaWQ9InNoYXBlNDY5NS0xMCIgdHJhbnNmb3JtPSJ0cmFuc2xhdGUoOS41MDI3MywtMy41MjgyNSkiPiYjeGE7CQkJPHRpdGxlIGlkPSJ0aXRsZTg3MzYxIj5TaGVldC40Njk1PC90aXRsZT4mI3hhOwkJCTxwYXRoIGlkPSJwYXRoODczNjMiIGlua3NjYXBlOmNvbm5lY3Rvci1jdXJ2YXR1cmU9IjAiIHN0eWxlPSJmaWxsOiMyRDMyMzk7IiBkPSJNMCwyNy42MXYxMC4yOGgyLjNWMjcuNjFIMHoiLz4mI3hhOwkJPC9nPiYjeGE7CQk8ZyBpZD0ic2hhcGU0Njk2LTEyIiB0cmFuc2Zvcm09InRyYW5zbGF0ZSgxMy40ODc3LC0zLjUyODI1KSI+JiN4YTsJCQk8dGl0bGUgaWQ9InRpdGxlODczNjYiPlNoZWV0LjQ2OTY8L3RpdGxlPiYjeGE7CQkJPHBhdGggaWQ9InBhdGg4NzM2OCIgaW5rc2NhcGU6Y29ubmVjdG9yLWN1cnZhdHVyZT0iMCIgc3R5bGU9ImZpbGw6IzJEMzIzOTsiIGQ9Ik0wLDI3LjYxdjEwLjI4aDIuNDVWMjcuNjFIMHoiLz4mI3hhOwkJPC9nPiYjeGE7CQk8ZyBpZD0ic2hhcGU0Njk3LTE0IiB0cmFuc2Zvcm09InRyYW5zbGF0ZSgyMi4zNzc0LC0zLjk4ODQ2KSI+JiN4YTsJCQk8dGl0bGUgaWQ9InRpdGxlODczNzEiPlNoZWV0LjQ2OTc8L3RpdGxlPiYjeGE7CQkJPHBhdGggaWQ9InBhdGg4NzM3MyIgaW5rc2NhcGU6Y29ubmVjdG9yLWN1cnZhdHVyZT0iMCIgc3R5bGU9ImZpbGw6I0U1RTVFNTsiIGQ9Ik0wLDI4LjUzdjkuMzZoMy41M3YtOS4zNkwwLDI4LjUzeiIvPiYjeGE7CQk8L2c+JiN4YTsJCTxnIGlkPSJzaGFwZTQ2OTgtMTYiIHRyYW5zZm9ybT0idHJhbnNsYXRlKDExLjM0MiwtMTcuNjQxMykiPiYjeGE7CQkJPHRpdGxlIGlkPSJ0aXRsZTg3Mzc2Ij5TaGVldC40Njk4PC90aXRsZT4mI3hhOwkJCTxwYXRoIGlkPSJwYXRoODczNzgiIGlua3NjYXBlOmNvbm5lY3Rvci1jdXJ2YXR1cmU9IjAiIHN0eWxlPSJmaWxsOiNFNUU1RTU7IiBkPSJNMCwzNS45N2MwLTEuMDUsMC44Mi0xLjkxLDEuODQtMS45MSAgICAgczEuODQsMC44NiwxLjg0LDEuOTFjMCwxLjA3LTAuODIsMS45Mi0xLjg0LDEuOTJTMCwzNy4wNCwwLDM1Ljk3eiIvPiYjeGE7CQk8L2c+JiN4YTsJCTxnIGlkPSJzaGFwZTQ2OTktMTgiIHRyYW5zZm9ybT0idHJhbnNsYXRlKDIxLjc2NDMsLTE5LjAyMTkpIj4mI3hhOwkJCTx0aXRsZSBpZD0idGl0bGU4NzM4MSI+U2hlZXQuNDY5OTwvdGl0bGU+JiN4YTsJCQk8cGF0aCBpZD0icGF0aDg3MzgzIiBpbmtzY2FwZTpjb25uZWN0b3ItY3VydmF0dXJlPSIwIiBzdHlsZT0iZmlsbDojNkU5RTBCOyIgZD0iTTAsMzEuNzV2Ni4xNGgxLjUzdi02LjE0SDB6Ii8+JiN4YTsJCTwvZz4mI3hhOwkJPGcgaWQ9InNoYXBlNDcwMC0yMCIgdHJhbnNmb3JtPSJ0cmFuc2xhdGUoMTguMjM5MSwtNy41MTY3MikiPiYjeGE7CQkJPHRpdGxlIGlkPSJ0aXRsZTg3Mzg2Ij5TaGVldC40NzAwPC90aXRsZT4mI3hhOwkJCTxwYXRoIGlkPSJwYXRoODczODgiIGlua3NjYXBlOmNvbm5lY3Rvci1jdXJ2YXR1cmU9IjAiIHN0eWxlPSJmaWxsOiM2RTlFMEI7IiBkPSJNMCwyNS4xMnYxMi43N2gxLjUzVjI1LjEySDB6Ii8+JiN4YTsJCTwvZz4mI3hhOwkJPGcgaWQ9InNoYXBlNDcwMS0yMiIgdHJhbnNmb3JtPSJ0cmFuc2xhdGUoNi4yODQwNiwtOS4zNTc1NCkiPiYjeGE7CQkJPHRpdGxlIGlkPSJ0aXRsZTg3MzkxIj5TaGVldC40NzAxPC90aXRsZT4mI3hhOwkJCTxwYXRoIGlkPSJwYXRoODczOTMiIGlua3NjYXBlOmNvbm5lY3Rvci1jdXJ2YXR1cmU9IjAiIHN0eWxlPSJmaWxsOiM2RTlFMEI7IiBkPSJNMCwxOC41NnYxOS4zM2gxLjUzVjE4LjU2SDB6Ii8+JiN4YTsJCTwvZz4mI3hhOwkJPGcgaWQ9InNoYXBlNDcwMi0yNCIgdHJhbnNmb3JtPSJ0cmFuc2xhdGUoMy4wNjU0LC01LjgyOTI5KSI+JiN4YTsJCQk8dGl0bGUgaWQ9InRpdGxlODczOTYiPlNoZWV0LjQ3MDI8L3RpdGxlPiYjeGE7CQkJPHBhdGggaWQ9InBhdGg4NzM5OCIgaW5rc2NhcGU6Y29ubmVjdG9yLWN1cnZhdHVyZT0iMCIgc3R5bGU9ImZpbGw6IzZFOUUwQjsiIGQ9Ik0wLDExLjgxdjI2LjA4aDEuNjlWMTEuODFIMHoiLz4mI3hhOwkJPC9nPiYjeGE7CQk8ZyBpZD0ic2hhcGU0NzAzLTI2IiB0cmFuc2Zvcm09InRyYW5zbGF0ZSgxOC4yMzkxLC0xOS4wMjE5KSI+JiN4YTsJCQk8dGl0bGUgaWQ9InRpdGxlODc0MDEiPlNoZWV0LjQ3MDM8L3RpdGxlPiYjeGE7CQkJPHBhdGggaWQ9InBhdGg4NzQwMyIgaW5rc2NhcGU6Y29ubmVjdG9yLWN1cnZhdHVyZT0iMCIgc3R5bGU9ImZpbGw6IzZFOUUwQjsiIGQ9Ik01LjA2LDM2LjM2djEuNTNIMHYtMS41M0g1LjA2eiIvPiYjeGE7CQk8L2c+JiN4YTsJCTxnIGlkPSJzaGFwZTQ3MDQtMjgiIHRyYW5zZm9ybT0idHJhbnNsYXRlKDE4LjM0NDMsLTcuNTE2NzIpIj4mI3hhOwkJCTx0aXRsZSBpZD0idGl0bGU4NzQwNiI+U2hlZXQuNDcwNDwvdGl0bGU+JiN4YTsJCQk8cGF0aCBpZD0icGF0aDg3NDA4IiBpbmtzY2FwZTpjb25uZWN0b3ItY3VydmF0dXJlPSIwIiBzdHlsZT0iZmlsbDojNkU5RTBCOyIgZD0iTTQuMDMsMzYuMzZ2MS41M0gwdi0xLjUzSDQuMDN6Ii8+JiN4YTsJCTwvZz4mI3hhOwkJPGcgaWQ9InNoYXBlNDcwNS0zMCIgdHJhbnNmb3JtPSJ0cmFuc2xhdGUoMy4wNjU0LC01LjgyOTI5KSI+JiN4YTsJCQk8dGl0bGUgaWQ9InRpdGxlODc0MTEiPlNoZWV0LjQ3MDU8L3RpdGxlPiYjeGE7CQkJPHBhdGggaWQ9InBhdGg4NzQxMyIgaW5rc2NhcGU6Y29ubmVjdG9yLWN1cnZhdHVyZT0iMCIgc3R5bGU9ImZpbGw6IzZFOUUwQjsiIGQ9Ik02LjQ0LDM2LjJ2MS42OUgwVjM2LjJINi40NHoiLz4mI3hhOwkJPC9nPiYjeGE7CQk8ZyBpZD0ic2hhcGU0NzA2LTMyIiB0cmFuc2Zvcm09InRyYW5zbGF0ZSg2LjI4NDA2LC05LjM1NzU0KSI+JiN4YTsJCQk8dGl0bGUgaWQ9InRpdGxlODc0MTYiPlNoZWV0LjQ3MDY8L3RpdGxlPiYjeGE7CQkJPHBhdGggaWQ9InBhdGg4NzQxOCIgaW5rc2NhcGU6Y29ubmVjdG9yLWN1cnZhdHVyZT0iMCIgc3R5bGU9ImZpbGw6IzZFOUUwQjsiIGQ9Ik0zLjIyLDM2LjJ2MS42OUgwVjM2LjJIMy4yMnoiLz4mI3hhOwkJPC9nPiYjeGE7CQk8ZyBpZD0ic2hhcGU0NzA3LTM0IiB0cmFuc2Zvcm09InRyYW5zbGF0ZSgzLjA2NTQsLTMwLjM3MzcpIj4mI3hhOwkJCTx0aXRsZSBpZD0idGl0bGU4NzQyMSI+U2hlZXQuNDcwNzwvdGl0bGU+JiN4YTsJCQk8cGF0aCBpZD0icGF0aDg3NDIzIiBpbmtzY2FwZTpjb25uZWN0b3ItY3VydmF0dXJlPSIwIiBzdHlsZT0iZmlsbDojNkU5RTBCOyIgZD0iTTkuMDQsMzYuMnYxLjY5SDBWMzYuMkg5LjA0eiIvPiYjeGE7CQk8L2c+JiN4YTsJCTxnIGlkPSJzaGFwZTQ3MDgtMzYiIHRyYW5zZm9ybT0idHJhbnNsYXRlKDYuMjg0MDYsLTI3LjE1MjIpIj4mI3hhOwkJCTx0aXRsZSBpZD0idGl0bGU4NzQyNiI+U2hlZXQuNDcwODwvdGl0bGU+JiN4YTsJCQk8cGF0aCBpZD0icGF0aDg3NDI4IiBpbmtzY2FwZTpjb25uZWN0b3ItY3VydmF0dXJlPSIwIiBzdHlsZT0iZmlsbDojNkU5RTBCOyIgZD0iTTUuODIsMzYuMzZ2MS41M0gwdi0xLjUzSDUuODJ6Ii8+JiN4YTsJCTwvZz4mI3hhOwk8L2c+JiN4YTs8L2c+JiN4YTs8L3N2Zz4=;" vertex="1" parent="1">
          <mxGeometry x="330" y="239.5" width="34" height="38" as="geometry" />
        </mxCell>
        <mxCell id="e_-w4jl6vJnBpZlzhAYl-14" value="aks-agentpool-28408381-nsg" style="shape=image;verticalLabelPosition=bottom;labelBackgroundColor=#ffffff;verticalAlign=top;aspect=fixed;imageAspect=0;image=data:image/svg+xml,PHN2ZyB4bWxuczpjYz0iaHR0cDovL2NyZWF0aXZlY29tbW9ucy5vcmcvbnMjIiB4bWxuczpkYz0iaHR0cDovL3B1cmwub3JnL2RjL2VsZW1lbnRzLzEuMS8iIHhtbG5zOmlua3NjYXBlPSJodHRwOi8vd3d3Lmlua3NjYXBlLm9yZy9uYW1lc3BhY2VzL2lua3NjYXBlIiB4bWxuczpyZGY9Imh0dHA6Ly93d3cudzMub3JnLzE5OTkvMDIvMjItcmRmLXN5bnRheC1ucyMiIHhtbG5zOnNvZGlwb2RpPSJodHRwOi8vc29kaXBvZGkuc291cmNlZm9yZ2UubmV0L0RURC9zb2RpcG9kaS0wLmR0ZCIgeG1sbnM6c3ZnPSJodHRwOi8vd3d3LnczLm9yZy8yMDAwL3N2ZyIgeG1sbnM9Imh0dHA6Ly93d3cudzMub3JnLzIwMDAvc3ZnIiB4bWxuczp4bGluaz0iaHR0cDovL3d3dy53My5vcmcvMTk5OS94bGluayIgdmVyc2lvbj0iMS4xIiBpZD0ic3ZnODc3MDAiIGlua3NjYXBlOnZlcnNpb249IjAuOTIuMyAoMjQwNTU0NiwgMjAxOC0wMy0xMSkiIHNvZGlwb2RpOmRvY25hbWU9Im5ldHdvcmtfc2VjdXJpdHlfZ3JvdXAuc3ZnIiB4PSIwcHgiIHk9IjBweCIgdmlld0JveD0iMCAwIDIyLjgzIDMxLjEyIiBzdHlsZT0iZW5hYmxlLWJhY2tncm91bmQ6bmV3IDAgMCAyMi44MyAzMS4xMjsiIHhtbDpzcGFjZT0icHJlc2VydmUiPiYjeGE7PHNvZGlwb2RpOm5hbWVkdmlldyBib3JkZXJjb2xvcj0iIzY2NjY2NiIgYm9yZGVyb3BhY2l0eT0iMSIgZml0LW1hcmdpbi1ib3R0b209IjAiIGZpdC1tYXJnaW4tbGVmdD0iMCIgZml0LW1hcmdpbi1yaWdodD0iMCIgZml0LW1hcmdpbi10b3A9IjAiIGdyaWR0b2xlcmFuY2U9IjEwIiBndWlkZXRvbGVyYW5jZT0iMTAiIGlkPSJuYW1lZHZpZXc4NzcwMiIgaW5rc2NhcGU6Y3VycmVudC1sYXllcj0ic3ZnODc3MDAiIGlua3NjYXBlOmN4PSI3Ljc4MzU0ODIiIGlua3NjYXBlOmN5PSIxNi4yMjc2MjMiIGlua3NjYXBlOnBhZ2VvcGFjaXR5PSIwIiBpbmtzY2FwZTpwYWdlc2hhZG93PSIyIiBpbmtzY2FwZTp3aW5kb3ctaGVpZ2h0PSIxMDE3IiBpbmtzY2FwZTp3aW5kb3ctbWF4aW1pemVkPSIxIiBpbmtzY2FwZTp3aW5kb3ctd2lkdGg9IjE5MjAiIGlua3NjYXBlOndpbmRvdy14PSItOCIgaW5rc2NhcGU6d2luZG93LXk9Ii04IiBpbmtzY2FwZTp6b29tPSIxNC4wOTU3MzQiIG9iamVjdHRvbGVyYW5jZT0iMTAiIHBhZ2Vjb2xvcj0iI2ZmZmZmZiIgc2hvd2dyaWQ9ImZhbHNlIj4mI3hhOwk8L3NvZGlwb2RpOm5hbWVkdmlldz4mI3hhOzxnIGlkPSJnODc2OTgiIHRyYW5zZm9ybT0idHJhbnNsYXRlKC0wLjc1LC0wLjc1KSI+JiN4YTsJPHRpdGxlIGlkPSJ0aXRsZTg3NjQyIj5QYWdlLTE8L3RpdGxlPiYjeGE7CTxnIGlkPSJncm91cDU2NjktMSIgdHJhbnNmb3JtPSJ0cmFuc2xhdGUoMC43NSwtMC43NSkiPiYjeGE7CQk8dGl0bGUgaWQ9InRpdGxlODc2NDQiPk5ldHdvcmsgU2VjdXJpdHkgR3JvdXA8L3RpdGxlPiYjeGE7CQk8ZyBpZD0ic2hhcGU1NjcwLTIiPiYjeGE7CQkJPHRpdGxlIGlkPSJ0aXRsZTg3NjQ2Ij5TaGVldC41NjcwPC90aXRsZT4mI3hhOwkJCTxwYXRoIGlkPSJwYXRoODc2NDgiIGlua3NjYXBlOmNvbm5lY3Rvci1jdXJ2YXR1cmU9IjAiIHN0eWxlPSJmaWxsOiMzOTk5QzY7IiBkPSJNMTkuNDYsNS4yNEMxMi42LDQuNDksMTEuNDEsMS41LDExLjQxLDEuNSAgICAgUzkuODUsNS4zNywwLDUuMzd2MTUuOTZjMCwxLjkzLDEuMDYsMy43NCwyLjU2LDUuM2MzLjM2LDMuNTYsOC44NSw1Ljk5LDguODUsNS45OXMxMS40Mi00Ljk5LDExLjQyLTExLjI5VjUuMzcgICAgIEMyMS41OCw1LjM3LDIwLjQ2LDUuMywxOS40Niw1LjI0eiIvPiYjeGE7CQk8L2c+JiN4YTsJCTxnIGlkPSJzaGFwZTU2NzEtNCIgdHJhbnNmb3JtPSJ0cmFuc2xhdGUoMCwtNS45ODY5MikiPiYjeGE7CQkJPHRpdGxlIGlkPSJ0aXRsZTg3NjUxIj5TaGVldC41NjcxPC90aXRsZT4mI3hhOwkJCTxwYXRoIGlkPSJwYXRoODc2NTMiIGlua3NjYXBlOmNvbm5lY3Rvci1jdXJ2YXR1cmU9IjAiIHN0eWxlPSJmaWxsOiM1OUI0RDk7ZmlsbC1vcGFjaXR5OjAuNDsiIGQ9Ik0xNC4yOCwxNy43OGw1LjE4LTYuNTUgICAgIGMtNi44Ni0wLjc1LTguMDUtMy43NC04LjA1LTMuNzRTOS44NSwxMS4zNSwwLDExLjM1djE1Ljk3YzAsMS45MywxLjA2LDMuNzQsMi41Niw1LjNsMy44Ni00Ljg2TDE0LjI4LDE3Ljc4eiIvPiYjeGE7CQk8L2c+JiN4YTsJCTxnIGlkPSJncm91cDU2NzItNiIgdHJhbnNmb3JtPSJ0cmFuc2xhdGUoMi4zMDc0NiwtMy4xMTgxOSkiPiYjeGE7CQkJPHRpdGxlIGlkPSJ0aXRsZTg3NjU2Ij5TaGVldC41NjcyPC90aXRsZT4mI3hhOwkJCTxnIGlkPSJzaGFwZTU2NzMtNyIgdHJhbnNmb3JtPSJ0cmFuc2xhdGUoMC4wNjIzNjM3KSI+JiN4YTsJCQkJPHRpdGxlIGlkPSJ0aXRsZTg3NjU4Ij5TaGVldC41NjczPC90aXRsZT4mI3hhOwkJCQk8cGF0aCBpZD0icGF0aDg3NjYwIiBpbmtzY2FwZTpjb25uZWN0b3ItY3VydmF0dXJlPSIwIiBzdHlsZT0iZmlsbDojRkZGRkZGO2ZpbGwtb3BhY2l0eTowLjM7IiBkPSJNMCwxOS44M3YzLjgxICAgICAgYzAsMS41NiwwLjg3LDIuOTksMi4wNiw0LjI0YzIuNjgsMi44Nyw3LjA1LDQuNzQsNy4wNSw0Ljc0VjE5LjgzSDB6Ii8+JiN4YTsJCQk8L2c+JiN4YTsJCQk8ZyBpZD0ic2hhcGU1Njc0LTkiIHRyYW5zZm9ybT0idHJhbnNsYXRlKDkuMTA1MSkiPiYjeGE7CQkJCTx0aXRsZSBpZD0idGl0bGU4NzY2MyI+U2hlZXQuNTY3NDwvdGl0bGU+JiN4YTsJCQkJPHBhdGggaWQ9InBhdGg4NzY2NSIgaW5rc2NhcGU6Y29ubmVjdG9yLWN1cnZhdHVyZT0iMCIgc3R5bGU9ImZpbGw6I0ZGRkZGRjtmaWxsLW9wYWNpdHk6MC43OyIgZD0iTTAsMzIuNjIgICAgICBjMCwwLDkuMTEtMy45OSw5LjExLTguOTh2LTMuODFIMFYzMi42MnoiLz4mI3hhOwkJCTwvZz4mI3hhOwkJCTxnIGlkPSJzaGFwZTU2NzUtMTEiIHRyYW5zZm9ybT0idHJhbnNsYXRlKDAsLTEyLjc4NDYpIj4mI3hhOwkJCQk8dGl0bGUgaWQ9InRpdGxlODc2NjgiPlNoZWV0LjU2NzU8L3RpdGxlPiYjeGE7CQkJCTxwYXRoIGlkPSJwYXRoODc2NzAiIGlua3NjYXBlOmNvbm5lY3Rvci1jdXJ2YXR1cmU9IjAiIHN0eWxlPSJmaWxsOiNGRkZGRkY7ZmlsbC1vcGFjaXR5OjAuNzsiIGQ9Ik05LjExLDIwLjU4ICAgICAgYzAsMC0xLjI1LDMuMTItOS4xMSwzLjEydjguOTJoOS4xMVYyMC41OHoiLz4mI3hhOwkJCTwvZz4mI3hhOwkJCTxnIGlkPSJzaGFwZTU2NzYtMTMiIHRyYW5zZm9ybT0idHJhbnNsYXRlKDkuMTA1MSwtMTIuNzg0NikiPiYjeGE7CQkJCTx0aXRsZSBpZD0idGl0bGU4NzY3MyI+U2hlZXQuNTY3NjwvdGl0bGU+JiN4YTsJCQkJPHBhdGggaWQ9InBhdGg4NzY3NSIgaW5rc2NhcGU6Y29ubmVjdG9yLWN1cnZhdHVyZT0iMCIgc3R5bGU9ImZpbGw6I0ZGRkZGRjtmaWxsLW9wYWNpdHk6MC4zOyIgZD0iTTYuMzYsMjMuNTggICAgICBDMC45NCwyMi45NSwwLDIwLjY1LDAsMjAuNjV2MTEuOTdoOS4xMVYyMy43QzguMTEsMjMuNyw3LjE3LDIzLjY0LDYuMzYsMjMuNTh6Ii8+JiN4YTsJCQk8L2c+JiN4YTsJCTwvZz4mI3hhOwkJPGcgaWQ9Imdyb3VwNTY3Ny0xNSIgdHJhbnNmb3JtPSJ0cmFuc2xhdGUoMy4xMjQ0MiwtMTIuNzc0NikiPiYjeGE7CQkJPHRpdGxlIGlkPSJ0aXRsZTg3Njc5Ij5TaGVldC41Njc3PC90aXRsZT4mI3hhOwkJCTxnIGlkPSJzaGFwZTU2NzgtMTYiIHRyYW5zZm9ybT0idHJhbnNsYXRlKDAsLTAuMTAyOSkiPiYjeGE7CQkJCTx0aXRsZSBpZD0idGl0bGU4NzY4MSI+U2hlZXQuNTY3ODwvdGl0bGU+JiN4YTsJCQkJPHBhdGggaWQ9InBhdGg4NzY4MyIgaW5rc2NhcGU6Y29ubmVjdG9yLWN1cnZhdHVyZT0iMCIgc3R5bGU9ImZpbGw6IzNFM0UzRTsiIGQ9Ik01LjE4LDMyLjYyaC0xLjFsLTIuOTMtNC40OSAgICAgIGMtMC4wNy0wLjEyLTAuMTMtMC4yNC0wLjE4LTAuMzZIMC45NWMwLjAyLDAuMTMsMC4wMywwLjQxLDAuMDMsMC44NHY0LjAxSDB2LTYuMTFoMS4xOEw0LDMwLjg5YzAuMTIsMC4xOCwwLjIsMC4zMSwwLjIzLDAuMzggICAgICBoMC4wMmMtMC4wMy0wLjE2LTAuMDQtMC40NC0wLjA0LTAuODJ2LTMuOTRoMC45N0w1LjE4LDMyLjYyeiIvPiYjeGE7CQkJPC9nPiYjeGE7CQkJPGcgaWQ9InNoYXBlNTY3OS0xOCIgdHJhbnNmb3JtPSJ0cmFuc2xhdGUoNi40MTA5OSkiPiYjeGE7CQkJCTx0aXRsZSBpZD0idGl0bGU4NzY4NiI+U2hlZXQuNTY3OTwvdGl0bGU+JiN4YTsJCQkJPHBhdGggaWQ9InBhdGg4NzY4OCIgaW5rc2NhcGU6Y29ubmVjdG9yLWN1cnZhdHVyZT0iMCIgc3R5bGU9ImZpbGw6IzNFM0UzRTsiIGQ9Ik0wLDMyLjI3di0xLjA0YzAuMSwwLjA4LDAuMjEsMC4xNiwwLjM0LDAuMjMgICAgICBzMC4yNywwLjEyLDAuNDEsMC4xN2MwLjE1LDAuMDUsMC4yOSwwLjA4LDAuNDQsMC4xMWMwLjE0LDAuMDMsMC4yNywwLjA0LDAuNCwwLjA0YzAuNDIsMCwwLjc0LTAuMDcsMC45NS0wLjIyICAgICAgYzAuMjEtMC4xNCwwLjMxLTAuMzQsMC4zMS0wLjYxYzAtMC4xNS0wLjAzLTAuMjctMC4xLTAuMzhjLTAuMDctMC4xMS0wLjE3LTAuMi0wLjI5LTAuMjljLTAuMTMtMC4wOS0wLjI4LTAuMTgtMC40NS0wLjI2ICAgICAgYy0wLjE2LTAuMDgtMC4zNS0wLjE2LTAuNTQtMC4yNWMtMC4yMS0wLjExLTAuNC0wLjIyLTAuNTgtMC4zNGMtMC4xOC0wLjExLTAuMzMtMC4yNC0wLjQ3LTAuMzdjLTAuMTMtMC4xNC0wLjIzLTAuMy0wLjMxLTAuNDcgICAgICBDMC4wNCwyOC40MiwwLDI4LjIxLDAsMjcuOThjMC0wLjI5LDAuMDYtMC41NCwwLjE5LTAuNzVjMC4xMy0wLjIxLDAuMy0wLjM5LDAuNTItMC41MmMwLjIxLTAuMTQsMC40NS0wLjI0LDAuNzItMC4zMSAgICAgIHMwLjU0LTAuMSwwLjgzLTAuMWMwLjYzLDAsMS4xLDAuMDcsMS4zOSwwLjIydjFjLTAuMzQtMC4yNS0wLjc5LTAuMzgtMS4zNC0wLjM4Yy0wLjE1LDAtMC4zLDAuMDItMC40NCwwLjA1ICAgICAgYy0wLjE1LDAuMDItMC4yOSwwLjA3LTAuNDEsMC4xNGMtMC4xMSwwLjA2LTAuMjEsMC4xNS0wLjI4LDAuMjVjLTAuMDgsMC4xLTAuMTEsMC4yMy0wLjExLDAuMzdjMCwwLjE0LDAuMDIsMC4yNSwwLjA4LDAuMzUgICAgICBjMC4wNiwwLjEsMC4xNCwwLjE5LDAuMjUsMC4yOGMwLjExLDAuMDgsMC4yNCwwLjE2LDAuNCwwLjI0czAuMzQsMC4xNiwwLjU1LDAuMjVjMC4yMSwwLjExLDAuNDEsMC4yMywwLjYsMC4zNSAgICAgIGMwLjE5LDAuMTIsMC4zNiwwLjI2LDAuNSwwLjQxYzAuMTUsMC4xNCwwLjI2LDAuMzEsMC4zNCwwLjQ5YzAuMDksMC4xOCwwLjEzLDAuMzgsMC4xMywwLjYyYzAsMC4zLTAuMDYsMC41Ny0wLjE5LDAuNzggICAgICBjLTAuMTIsMC4yMS0wLjI5LDAuMzktMC41LDAuNTJjLTAuMjIsMC4xMy0wLjQ2LDAuMjMtMC43NCwwLjI5Yy0wLjI3LDAuMDYtMC41NiwwLjA5LTAuODcsMC4wOWMtMC4xLDAtMC4yMy0wLjAxLTAuMzgtMC4wMiAgICAgIGMtMC4xNS0wLjAyLTAuMy0wLjA0LTAuNDUtMC4wN2MtMC4xNi0wLjAzLTAuMzEtMC4wNy0wLjQ1LTAuMTFDMC4yLDMyLjM4LDAuMDksMzIuMzMsMCwzMi4yN3oiLz4mI3hhOwkJCTwvZz4mI3hhOwkJCTxnIGlkPSJzaGFwZTU2ODAtMjAiIHRyYW5zZm9ybT0idHJhbnNsYXRlKDExLjA1ODMsLTAuMDAxMjQ3MjcpIj4mI3hhOwkJCQk8dGl0bGUgaWQ9InRpdGxlODc2OTEiPlNoZWV0LjU2ODA8L3RpdGxlPiYjeGE7CQkJCTxwYXRoIGlkPSJwYXRoODc2OTMiIGlua3NjYXBlOmNvbm5lY3Rvci1jdXJ2YXR1cmU9IjAiIHN0eWxlPSJmaWxsOiMzRTNFM0U7IiBkPSJNNS4xNiwzMi4xYy0wLjYzLDAuMzUtMS4zNCwwLjUyLTIuMTIsMC41MiAgICAgIGMtMC45MSwwLTEuNjQtMC4yOC0yLjItMC44NEMwLjI4LDMxLjIxLDAsMzAuNDcsMCwyOS41NGMwLTAuOTUsMC4zMS0xLjcyLDAuOTItMi4zM2MwLjYxLTAuNjEsMS4zOS0wLjkxLDIuMzMtMC45MSAgICAgIGMwLjY4LDAsMS4yNSwwLjEsMS43MiwwLjN2MS4wNGMtMC40Ny0wLjMxLTEuMDMtMC40Ni0xLjY4LTAuNDZzLTEuMTgsMC4yMS0xLjYsMC42NHMtMC42MiwwLjk4LTAuNjIsMS42NyAgICAgIGMwLDAuNywwLjE3LDEuMjUsMC41MywxLjY1czAuODUsMC42MSwxLjQ2LDAuNjFjMC40MiwwLDAuNzktMC4wOSwxLjA5LTAuMjV2LTEuNDVIMi44NlYyOS4yaDIuM0M1LjE2LDI5LjIsNS4xNiwzMi4xLDUuMTYsMzIuMSAgICAgIHoiLz4mI3hhOwkJCTwvZz4mI3hhOwkJPC9nPiYjeGE7CTwvZz4mI3hhOzwvZz4mI3hhOzwvc3ZnPg==;" vertex="1" parent="1">
          <mxGeometry x="860" y="398.07" width="33.28" height="44.86" as="geometry" />
        </mxCell>
        <mxCell id="e_-w4jl6vJnBpZlzhAYl-17" value="aks-agentpool-20772406-vmss" style="shape=image;verticalLabelPosition=bottom;labelBackgroundColor=#ffffff;verticalAlign=top;aspect=fixed;imageAspect=0;image=data:image/svg+xml,PHN2ZyB4bWxuczpkYz0iaHR0cDovL3B1cmwub3JnL2RjL2VsZW1lbnRzLzEuMS8iIHhtbG5zOmNjPSJodHRwOi8vY3JlYXRpdmVjb21tb25zLm9yZy9ucyMiIHhtbG5zOnJkZj0iaHR0cDovL3d3dy53My5vcmcvMTk5OS8wMi8yMi1yZGYtc3ludGF4LW5zIyIgeG1sbnM6c3ZnPSJodHRwOi8vd3d3LnczLm9yZy8yMDAwL3N2ZyIgeG1sbnM9Imh0dHA6Ly93d3cudzMub3JnLzIwMDAvc3ZnIiB4bWxuczpzb2RpcG9kaT0iaHR0cDovL3NvZGlwb2RpLnNvdXJjZWZvcmdlLm5ldC9EVEQvc29kaXBvZGktMC5kdGQiIHhtbG5zOmlua3NjYXBlPSJodHRwOi8vd3d3Lmlua3NjYXBlLm9yZy9uYW1lc3BhY2VzL2lua3NjYXBlIiB2ZXJzaW9uPSIxLjEiIGlkPSJzdmc2NjA5NiIgaW5rc2NhcGU6dmVyc2lvbj0iMC45Mi4zICgyNDA1NTQ2LCAyMDE4LTAzLTExKSIgc29kaXBvZGk6ZG9jbmFtZT0iYXp1cmVfdm1fc2NhbGVfc2V0LnN2ZyIgeD0iMHB4IiB5PSIwcHgiIHZpZXdCb3g9IjAgMCAzNy41IDM3LjUiIHhtbDpzcGFjZT0icHJlc2VydmUiIHdpZHRoPSIzNy41IiBoZWlnaHQ9IjM3LjUiPjxtZXRhZGF0YSBpZD0ibWV0YWRhdGEyMDk1NyI+PHJkZjpSREY+PGNjOldvcmsgcmRmOmFib3V0PSIiPjxkYzpmb3JtYXQ+aW1hZ2Uvc3ZnK3htbDwvZGM6Zm9ybWF0PjxkYzp0eXBlIHJkZjpyZXNvdXJjZT0iaHR0cDovL3B1cmwub3JnL2RjL2RjbWl0eXBlL1N0aWxsSW1hZ2UiLz48ZGM6dGl0bGUvPjwvY2M6V29yaz48L3JkZjpSREY+PC9tZXRhZGF0YT48ZGVmcyBpZD0iZGVmczIwOTU1Ii8+JiN4YTs8ZmlsdGVyIGlkPSJmaWx0ZXJfMiI+JiN4YTsJPGZlR2F1c3NpYW5CbHVyIGlkPSJmZUdhdXNzaWFuQmx1cjY1OTMzIiBzdGREZXZpYXRpb249IjIiLz4mI3hhOzwvZmlsdGVyPiYjeGE7PHNvZGlwb2RpOm5hbWVkdmlldyBib3JkZXJjb2xvcj0iIzY2NjY2NiIgYm9yZGVyb3BhY2l0eT0iMSIgZml0LW1hcmdpbi1ib3R0b209IjAiIGZpdC1tYXJnaW4tbGVmdD0iMCIgZml0LW1hcmdpbi1yaWdodD0iMCIgZml0LW1hcmdpbi10b3A9IjAiIGdyaWR0b2xlcmFuY2U9IjEwIiBndWlkZXRvbGVyYW5jZT0iMTAiIGlkPSJuYW1lZHZpZXc2NjA5OCIgaW5rc2NhcGU6Y3VycmVudC1sYXllcj0ic3ZnNjYwOTYiIGlua3NjYXBlOmN4PSItNS43MTM2Mjk5IiBpbmtzY2FwZTpjeT0iOC42NTU1MTUzIiBpbmtzY2FwZTpwYWdlb3BhY2l0eT0iMCIgaW5rc2NhcGU6cGFnZXNoYWRvdz0iMiIgaW5rc2NhcGU6d2luZG93LWhlaWdodD0iMTAxNyIgaW5rc2NhcGU6d2luZG93LW1heGltaXplZD0iMSIgaW5rc2NhcGU6d2luZG93LXdpZHRoPSIxOTIwIiBpbmtzY2FwZTp3aW5kb3cteD0iLTgiIGlua3NjYXBlOndpbmRvdy15PSItOCIgaW5rc2NhcGU6em9vbT0iMTAuNTcwMDIyIiBvYmplY3R0b2xlcmFuY2U9IjEwIiBwYWdlY29sb3I9IiNmZmZmZmYiIHNob3dncmlkPSJmYWxzZSI+JiN4YTsJPC9zb2RpcG9kaTpuYW1lZHZpZXc+JiN4YTsmI3hhOzxwYXRoIGlkPSJwYXRoNjU5NDYiIGlua3NjYXBlOmNvbm5lY3Rvci1jdXJ2YXR1cmU9IjAiIHN0eWxlPSJmaWxsOiNhMGExYTIiIGQ9Ik0gMjYuNzksMCBIIDEuNTUgQyAwLjY5LDAgMCwwLjc3IDAsMS42MiBWIDE5LjIgYyAwLDAuODUgMC42OSwxLjYxIDEuNTUsMS42MSBoIDI1LjI0IGMgMC44NiwwIDEuNzIsLTAuNzYgMS43MiwtMS42MSBWIDEuNjIgQyAyOC41MSwwLjc2IDI3LjY1LDAgMjYuNzksMCBaIi8+JiN4YTsmI3hhOzxwYXRoIGlkPSJwYXRoNjU5NTQiIGlua3NjYXBlOmNvbm5lY3Rvci1jdXJ2YXR1cmU9IjAiIHN0eWxlPSJmaWxsOiNmZmZmZmY7ZmlsbC1vcGFjaXR5OjAuMiIgZD0iTSAyNi44MSwwIEMgMjYuOCwwIDI2LjgsMCAyNi43OSwwIEggMS41NSBDIDAuNjksMCAwLDAuNzcgMCwxLjYyIFYgMTkuMiBjIDAsMC44NSAwLjY5LDEuNjEgMS41NSwxLjYxIGggMC42IHoiLz4mI3hhOyYjeGE7PHBhdGggaWQ9InBhdGg2NTk2MiIgaW5rc2NhcGU6Y29ubmVjdG9yLWN1cnZhdHVyZT0iMCIgc3R5bGU9ImZpbGw6IzU5YjRkOSIgZD0iTSAyNi4zNSwxOC42MiBIIDIuMTYgViAyLjE5IEwgMjYuMzUsMi4xNiBaIi8+JiN4YTsmI3hhOzxwYXRoIGlkPSJwYXRoNjU5NzAiIGlua3NjYXBlOmNvbm5lY3Rvci1jdXJ2YXR1cmU9IjAiIHN0eWxlPSJmaWxsOiNiOGQ0MzIiIGQ9Im0gMTQuNTUsMS4yIGMgMCwwLjIyIC0wLjE4LDAuNCAtMC40MSwwLjQgLTAuMjIsMCAtMC40LC0wLjE4IC0wLjQsLTAuNCAwLC0wLjIzIDAuMTgsLTAuNDEgMC40LC0wLjQxIDAuMjMsMCAwLjQxLDAuMTggMC40MSwwLjQxIHoiLz4mI3hhOyYjeGE7PHBhdGggaWQ9InBhdGg2NTk3OCIgaW5rc2NhcGU6Y29ubmVjdG9yLWN1cnZhdHVyZT0iMCIgc3R5bGU9ImZpbGw6I2ZmZmZmZiIgZD0iTSAxNC41Nyw5LjkxIEMgMTQuNTUsOS45MSAxNC41Miw5LjkgMTQuNSw5Ljg5IEwgOS40Nyw2Ljk5IEMgOS40Myw2Ljk3IDkuNCw2LjkyIDkuNCw2Ljg2IDkuNCw2LjgxIDkuNDMsNi43NiA5LjQ3LDYuNzMgbCA1LC0yLjg3IGMgMC4wNCwtMC4wMyAwLjEsLTAuMDMgMC4xNSwwIGwgNS4wMiwyLjg5IGMgMC4wNCwwLjAzIDAuMDcsMC4wOCAwLjA3LDAuMTMgMCwwLjA2IC0wLjAyLDAuMTEgLTAuMDcsMC4xMyBMIDE0LjY1LDkuODkgQyAxNC42Myw5LjkgMTQuNiw5LjkxIDE0LjU3LDkuOTEgWiIvPiYjeGE7JiN4YTs8cGF0aCBpZD0icGF0aDY1OTg2IiBpbmtzY2FwZTpjb25uZWN0b3ItY3VydmF0dXJlPSIwIiBzdHlsZT0iZmlsbDojYTBhMWEyIiBkPSJNIDMxLjI1LDUuNTkgSCA2LjAxIGMgLTAuODYsMCAtMS41NSwwLjc3IC0xLjU1LDEuNjIgdiAxNy41OCBjIDAsMC44NSAwLjY5LDEuNjEgMS41NSwxLjYxIGggMjUuMjQgYyAwLjg2LDAgMS43MiwtMC43NiAxLjcyLC0xLjYxIFYgNy4yMSBjIDAsLTAuODYgLTAuODYsLTEuNjIgLTEuNzIsLTEuNjIgeiIvPiYjeGE7JiN4YTs8cGF0aCBpZD0icGF0aDY1OTk0IiBpbmtzY2FwZTpjb25uZWN0b3ItY3VydmF0dXJlPSIwIiBzdHlsZT0iZmlsbDojZmZmZmZmO2ZpbGwtb3BhY2l0eTowLjIiIGQ9Im0gMzEuMjcsNS41OSBjIC0wLjAxLDAgLTAuMDEsMCAtMC4wMiwwIEggNi4wMSBjIC0wLjg2LDAgLTEuNTUsMC43NyAtMS41NSwxLjYyIHYgMTcuNTggYyAwLDAuODUgMC42OSwxLjYxIDEuNTUsMS42MSBoIDAuNiB6Ii8+JiN4YTsmI3hhOzxwYXRoIGlkPSJwYXRoNjYwMDIiIGlua3NjYXBlOmNvbm5lY3Rvci1jdXJ2YXR1cmU9IjAiIHN0eWxlPSJmaWxsOiM1OWI0ZDkiIGQ9Ik0gMzAuODEsMjQuMjEgSCA2LjYyIFYgNy43OCBMIDMwLjgxLDcuNzUgYyAwLDAgMCwxNi40NiAwLDE2LjQ2IHoiLz4mI3hhOyYjeGE7PHBhdGggaWQ9InBhdGg2NjAxMCIgaW5rc2NhcGU6Y29ubmVjdG9yLWN1cnZhdHVyZT0iMCIgc3R5bGU9ImZpbGw6I2I4ZDQzMiIgZD0ibSAxOS4wMSw2Ljc5IGMgMCwwLjIyIC0wLjE4LDAuNCAtMC40MSwwLjQgLTAuMjIsMCAtMC40LC0wLjE4IC0wLjQsLTAuNCAwLC0wLjIzIDAuMTgsLTAuNDEgMC40LC0wLjQxIDAuMjMsMCAwLjQxLDAuMTggMC40MSwwLjQxIHoiLz4mI3hhOyYjeGE7PHBhdGggaWQ9InBhdGg2NjAxOCIgaW5rc2NhcGU6Y29ubmVjdG9yLWN1cnZhdHVyZT0iMCIgc3R5bGU9ImZpbGw6I2ZmZmZmZiIgZD0ibSAxOS4wMywxNS41IGMgLTAuMDIsMCAtMC4wNSwtMC4wMSAtMC4wNywtMC4wMiBsIC01LjAzLC0yLjkgYyAtMC4wNCwtMC4wMiAtMC4wNywtMC4wNyAtMC4wNywtMC4xMyAwLC0wLjA1IDAuMDMsLTAuMSAwLjA3LC0wLjEzIGwgNSwtMi44NyBjIDAuMDQsLTAuMDMgMC4xLC0wLjAzIDAuMTUsMCBsIDUuMDIsMi44OSBjIDAuMDQsMC4wMyAwLjA3LDAuMDggMC4wNywwLjEzIDAsMC4wNiAtMC4wMiwwLjExIC0wLjA3LDAuMTMgbCAtNC45OSwyLjg4IGMgLTAuMDMsMC4wMSAtMC4wNSwwLjAyIC0wLjA4LDAuMDIgeiIvPiYjeGE7JiN4YTs8cGF0aCBpZD0icGF0aDY2MDI2IiBpbmtzY2FwZTpjb25uZWN0b3ItY3VydmF0dXJlPSIwIiBzdHlsZT0iZmlsbDojN2E3YTdhIiBkPSJNIDI3LjQ4LDMyLjAyIEggMjYuOCAyMC4wNyAxOS43MiBjIDAuOTMsMy4yOSAtMC4zMiwzLjc2IC01LjgsMy43NiB2IDEuNzIgaCA2Ljk3IDUuMDkgNi41OCB2IC0xLjcyIGMgLTUuNDgsMCAtNi4wMiwtMC40NyAtNS4wOCwtMy43NiB6Ii8+JiN4YTsmI3hhOzxwYXRoIGlkPSJwYXRoNjYwMzQiIGlua3NjYXBlOmNvbm5lY3Rvci1jdXJ2YXR1cmU9IjAiIHN0eWxlPSJmaWxsOiNhMGExYTIiIGQ9Ik0gMzUuNzgsMTEuMjIgSCAxMC41NCBjIC0wLjg2LDAgLTEuNTUsMC43NyAtMS41NSwxLjYyIHYgMTcuNTggYyAwLDAuODUgMC42OSwxLjYxIDEuNTUsMS42MSBoIDI1LjI0IGMgMC44NiwwIDEuNzIsLTAuNzYgMS43MiwtMS42MSBWIDEyLjg0IGMgMCwtMC44NSAtMC44NiwtMS42MiAtMS43MiwtMS42MiB6Ii8+JiN4YTsmI3hhOzxwYXRoIGlkPSJwYXRoNjYwNDIiIGlua3NjYXBlOmNvbm5lY3Rvci1jdXJ2YXR1cmU9IjAiIHN0eWxlPSJmaWxsOiNmZmZmZmY7ZmlsbC1vcGFjaXR5OjAuMiIgZD0ibSAzNS43OSwxMS4yMiBjIC0wLjAxLDAgLTAuMDEsMCAtMC4wMiwwIEggMTAuNTMgYyAtMC44NiwwIC0xLjU1LDAuNzcgLTEuNTUsMS42MiB2IDE3LjU4IGMgMCwwLjg1IDAuNjksMS42MSAxLjU1LDEuNjEgaCAwLjYgeiIvPiYjeGE7JiN4YTs8cGF0aCBpZD0icGF0aDY2MDUwIiBpbmtzY2FwZTpjb25uZWN0b3ItY3VydmF0dXJlPSIwIiBzdHlsZT0iZmlsbDojNTliNGQ5IiBkPSJNIDM1LjM0LDI5Ljg0IEggMTEuMTUgViAxMy40MSBsIDI0LjE5LC0wLjAzIHoiLz4mI3hhOyYjeGE7PHJlY3QgaWQ9InJlY3Q2NjA1OCIgeD0iMTMuOTE5OTk4IiB5PSIzNS43Nzk5OTkiIHN0eWxlPSJmaWxsOiNhMGExYTIiIHdpZHRoPSIxOC42Mzk5OTkiIGhlaWdodD0iMS43MiIvPiYjeGE7JiN4YTs8cGF0aCBpZD0icGF0aDY2MDY2IiBpbmtzY2FwZTpjb25uZWN0b3ItY3VydmF0dXJlPSIwIiBzdHlsZT0iZmlsbDojYjhkNDMyIiBkPSJtIDIzLjU0LDEyLjQxIGMgMCwwLjIyIC0wLjE4LDAuNCAtMC40MSwwLjQgLTAuMjIsMCAtMC40LC0wLjE4IC0wLjQsLTAuNCAwLC0wLjIzIDAuMTgsLTAuNDEgMC40LC0wLjQxIDAuMjMsMCAwLjQxLDAuMTggMC40MSwwLjQxIHoiLz4mI3hhOyYjeGE7PHBhdGggaWQ9InBhdGg2NjA3NCIgaW5rc2NhcGU6Y29ubmVjdG9yLWN1cnZhdHVyZT0iMCIgc3R5bGU9ImZpbGw6I2ZmZmZmZiIgZD0ibSAyMy41NSwyMS4xMiBjIC0wLjAyLDAgLTAuMDUsLTAuMDEgLTAuMDcsLTAuMDIgbCAtNS4wMywtMi45IGMgLTAuMDQsLTAuMDIgLTAuMDcsLTAuMDcgLTAuMDcsLTAuMTMgMCwtMC4wNSAwLjAzLC0wLjEgMC4wNywtMC4xMyBsIDUsLTIuODcgYyAwLjA0LC0wLjAzIDAuMSwtMC4wMyAwLjE1LDAgbCA1LjAyLDIuODkgYyAwLjA0LDAuMDMgMC4wNywwLjA4IDAuMDcsMC4xMyAwLDAuMDYgLTAuMDIsMC4xMSAtMC4wNywwLjEzIGwgLTQuOTksMi44OCBjIC0wLjAyLDAuMDEgLTAuMDUsMC4wMiAtMC4wOCwwLjAyIHoiLz4mI3hhOyYjeGE7PHBhdGggaWQ9InBhdGg2NjA4MiIgaW5rc2NhcGU6Y29ubmVjdG9yLWN1cnZhdHVyZT0iMCIgc3R5bGU9ImZpbGw6I2ZmZmZmZjtmaWxsLW9wYWNpdHk6MC43IiBkPSJtIDIyLjgzLDI4LjE2IGMgLTAuMDMsMCAtMC4wNSwtMC4wMSAtMC4wOCwtMC4wMiBsIC01LC0yLjg5IEMgMTcuNywyNS4yMyAxNy42NywyNS4xOCAxNy42NywyNS4xMiB2IC01Ljc5IGMgMCwtMC4wNSAwLjAzLC0wLjEgMC4wOCwtMC4xMyAwLjA0LC0wLjAzIDAuMSwtMC4wMyAwLjE1LDAgbCA1LjAxLDIuODkgYyAwLjA0LDAuMDMgMC4wNywwLjA3IDAuMDcsMC4xMyB2IDUuNzkgYyAwLDAuMDUgLTAuMDMsMC4xIC0wLjA3LDAuMTMgLTAuMDMsMC4wMSAtMC4wNSwwLjAyIC0wLjA4LDAuMDIgeiIvPiYjeGE7JiN4YTs8cGF0aCBpZD0icGF0aDY2MDkwIiBpbmtzY2FwZTpjb25uZWN0b3ItY3VydmF0dXJlPSIwIiBzdHlsZT0iZmlsbDojZmZmZmZmO2ZpbGwtb3BhY2l0eTowLjQiIGQ9Im0gMjQuMjUsMjguMTYgYyAtMC4wMywwIC0wLjA1LC0wLjAxIC0wLjA4LC0wLjAyIC0wLjA0LC0wLjAzIC0wLjA3LC0wLjA4IC0wLjA3LC0wLjEzIHYgLTUuNzYgYyAwLC0wLjA1IDAuMDMsLTAuMSAwLjA3LC0wLjEzIGwgNS4wMSwtMi44OCBjIDAuMDUsLTAuMDMgMC4xLC0wLjAzIDAuMTUsMCAwLjA1LDAuMDMgMC4wOCwwLjA4IDAuMDgsMC4xMyB2IDUuNzUgYyAwLDAuMDYgLTAuMDMsMC4xMSAtMC4wOCwwLjE0IGwgLTUsMi44OCBjIC0wLjAzLDAuMDEgLTAuMDUsMC4wMiAtMC4wOCwwLjAyIHoiLz4mI3hhOzwvc3ZnPg==;" vertex="1" parent="1">
          <mxGeometry x="646.74" y="402" width="40.93" height="40.93" as="geometry" />
        </mxCell>
        <mxCell id="e_-w4jl6vJnBpZlzhAYl-22" value="" style="edgeStyle=orthogonalEdgeStyle;rounded=0;orthogonalLoop=1;jettySize=auto;html=1;" edge="1" parent="1" source="e_-w4jl6vJnBpZlzhAYl-21" target="e_-w4jl6vJnBpZlzhAYl-3">
          <mxGeometry relative="1" as="geometry" />
        </mxCell>
        <mxCell id="e_-w4jl6vJnBpZlzhAYl-21" value="" style="shape=image;verticalLabelPosition=bottom;labelBackgroundColor=#ffffff;verticalAlign=top;aspect=fixed;imageAspect=0;image=data:image/svg+xml,PHN2ZyB4bWxuczpkYz0iaHR0cDovL3B1cmwub3JnL2RjL2VsZW1lbnRzLzEuMS8iIHhtbG5zOmNjPSJodHRwOi8vY3JlYXRpdmVjb21tb25zLm9yZy9ucyMiIHhtbG5zOnJkZj0iaHR0cDovL3d3dy53My5vcmcvMTk5OS8wMi8yMi1yZGYtc3ludGF4LW5zIyIgeG1sbnM6c3ZnPSJodHRwOi8vd3d3LnczLm9yZy8yMDAwL3N2ZyIgeG1sbnM9Imh0dHA6Ly93d3cudzMub3JnLzIwMDAvc3ZnIiB4bWxuczpzb2RpcG9kaT0iaHR0cDovL3NvZGlwb2RpLnNvdXJjZWZvcmdlLm5ldC9EVEQvc29kaXBvZGktMC5kdGQiIHhtbG5zOmlua3NjYXBlPSJodHRwOi8vd3d3Lmlua3NjYXBlLm9yZy9uYW1lc3BhY2VzL2lua3NjYXBlIiB2ZXJzaW9uPSIxLjEiIGlkPSJzdmc1NjAxOCIgaW5rc2NhcGU6dmVyc2lvbj0iMC45Mi4zICgyNDA1NTQ2LCAyMDE4LTAzLTExKSIgc29kaXBvZGk6ZG9jbmFtZT0iYXp1cmVfY29udGFpbmVyLnN2ZyIgeD0iMHB4IiB5PSIwcHgiIHZpZXdCb3g9IjAgMCA2NS41MiA0OC40OSIgeG1sOnNwYWNlPSJwcmVzZXJ2ZSIgd2lkdGg9IjY1LjUxOTk5NyIgaGVpZ2h0PSI0OC40OTAwMDIiPjxtZXRhZGF0YSBpZD0ibWV0YWRhdGE1NTM4Ij48cmRmOlJERj48Y2M6V29yayByZGY6YWJvdXQ9IiI+PGRjOmZvcm1hdD5pbWFnZS9zdmcreG1sPC9kYzpmb3JtYXQ+PGRjOnR5cGUgcmRmOnJlc291cmNlPSJodHRwOi8vcHVybC5vcmcvZGMvZGNtaXR5cGUvU3RpbGxJbWFnZSIvPjxkYzp0aXRsZS8+PC9jYzpXb3JrPjwvcmRmOlJERj48L21ldGFkYXRhPjxkZWZzIGlkPSJkZWZzNTUzNiIvPiYjeGE7PGZpbHRlciBpZD0iZmlsdGVyXzIiPiYjeGE7CTxmZUdhdXNzaWFuQmx1ciBpZD0iZmVHYXVzc2lhbkJsdXI1NTgzOSIgc3RkRGV2aWF0aW9uPSIyIi8+JiN4YTs8L2ZpbHRlcj4mI3hhOzxzb2RpcG9kaTpuYW1lZHZpZXcgYm9yZGVyY29sb3I9IiM2NjY2NjYiIGJvcmRlcm9wYWNpdHk9IjEiIGZpdC1tYXJnaW4tYm90dG9tPSIwIiBmaXQtbWFyZ2luLWxlZnQ9IjAiIGZpdC1tYXJnaW4tcmlnaHQ9IjAiIGZpdC1tYXJnaW4tdG9wPSIwIiBncmlkdG9sZXJhbmNlPSIxMCIgZ3VpZGV0b2xlcmFuY2U9IjEwIiBpZD0ibmFtZWR2aWV3NTYwMjAiIGlua3NjYXBlOmN1cnJlbnQtbGF5ZXI9InN2ZzU2MDE4IiBpbmtzY2FwZTpjeD0iLTMuNDYzNzEzOSIgaW5rc2NhcGU6Y3k9IjIwLjQ1NjkyNyIgaW5rc2NhcGU6cGFnZW9wYWNpdHk9IjAiIGlua3NjYXBlOnBhZ2VzaGFkb3c9IjIiIGlua3NjYXBlOndpbmRvdy1oZWlnaHQ9IjEwMTciIGlua3NjYXBlOndpbmRvdy1tYXhpbWl6ZWQ9IjEiIGlua3NjYXBlOndpbmRvdy13aWR0aD0iMTkyMCIgaW5rc2NhcGU6d2luZG93LXg9Ii04IiBpbmtzY2FwZTp3aW5kb3cteT0iLTgiIGlua3NjYXBlOnpvb209IjguOTExNjU1NyIgb2JqZWN0dG9sZXJhbmNlPSIxMCIgcGFnZWNvbG9yPSIjZmZmZmZmIiBzaG93Z3JpZD0iZmFsc2UiPiYjeGE7CTwvc29kaXBvZGk6bmFtZWR2aWV3PiYjeGE7JiN4YTs8cGF0aCBpZD0icGF0aDU1ODUyIiBpbmtzY2FwZTpjb25uZWN0b3ItY3VydmF0dXJlPSIwIiBzdHlsZT0iZmlsbDojODA0OTk4IiBkPSJNIDMwLjAxLDEyLjMyIDE5LjkyLDE2LjI1IFYgMCBsIDEwLjA5LDMuNTQgeiIvPiYjeGE7JiN4YTs8cGF0aCBpZD0icGF0aDU1ODYwIiBpbmtzY2FwZTpjb25uZWN0b3ItY3VydmF0dXJlPSIwIiBzdHlsZT0iZmlsbDojODA0OTk4IiBkPSJtIDEwLjg4LDIuNzUgdiAxMC42MSBsIDcuNDcsMi44OSBWIDAuMTMgWiBtIDAuNzksOS44MyAtMC40LC0wLjEzIFYgMy42NyBsIDAuNCwtMC4xMyAwLjM5LC0wLjE0IDAuMzksLTAuMTMgdiA5LjU3IGwgLTAuMzksLTAuMTMgeiBtIDEuOTYsMC41MiAtMC41MiwtMC4xMyBWIDMuMTQgbCAwLjUyLC0wLjEzIDAuNTMsLTAuMTMgMC41MiwtMC4xMyB2IDEwLjc0IGwgLTAuNTIsLTAuMTMgeiBtIDIuMzYsMC43OSAtMC42NSwtMC4yNiBWIDIuNDkgbCAwLjY1LC0wLjEzIDAuNjYsLTAuMjcgMC43OCwtMC4yNiB2IDEyLjQ1IGwgLTAuNzgsLTAuMjYgeiIvPiYjeGE7JiN4YTs8cGF0aCBpZD0icGF0aDU1ODY4IiBpbmtzY2FwZTpjb25uZWN0b3ItY3VydmF0dXJlPSIwIiBzdHlsZT0iZmlsbDojODA0OTk4IiBkPSJNIDUzLjQ3LDEyLjMyIDQzLjM4LDE2LjI1IFYgMCBsIDEwLjA5LDMuNTQgeiIvPiYjeGE7JiN4YTs8cGF0aCBpZD0icGF0aDU1ODc2IiBpbmtzY2FwZTpjb25uZWN0b3ItY3VydmF0dXJlPSIwIiBzdHlsZT0iZmlsbDojODA0OTk4IiBkPSJtIDM0LjMzLDIuNzUgdiAxMC42MSBsIDcuNDcsMi44OSBWIDAuMTMgWiBtIDAuNzksOS44MyAtMC40LC0wLjEzIFYgMy42NyBMIDM1LjEyLDMuNTQgMzUuNTEsMy40IDM1LjksMy4yNyB2IDkuNTcgbCAtMC4zOSwtMC4xMyB6IG0gMS45NiwwLjUyIC0wLjUyLC0wLjEzIFYgMy4xNCBsIDAuNTIsLTAuMTMgMC41MywtMC4xMyAwLjUyLC0wLjEzIHYgMTAuNzQgbCAtMC41MiwtMC4xMyB6IG0gMi4zNiwwLjc5IC0wLjY1LC0wLjI2IFYgMi40OSBMIDM5LjQ0LDIuMzYgNDAuMSwyLjA5IDQwLjg4LDEuODMgViAxNC4yOCBMIDQwLjEsMTQuMDIgWiIvPiYjeGE7JiN4YTs8cGF0aCBpZD0icGF0aDU1ODg0IiBpbmtzY2FwZTpjb25uZWN0b3ItY3VydmF0dXJlPSIwIiBzdHlsZT0iZmlsbDojODA0OTk4IiBkPSJNIDMwLjAxLDQ0LjU2IDE5LjkyLDQ4LjQ5IFYgMzIuMjQgbCAxMC4wOSwzLjU0IHoiLz4mI3hhOyYjeGE7PHBhdGggaWQ9InBhdGg1NTg5MiIgaW5rc2NhcGU6Y29ubmVjdG9yLWN1cnZhdHVyZT0iMCIgc3R5bGU9ImZpbGw6IzgwNDk5OCIgZD0iTSAxMC44OCwzNC45OSBWIDQ1LjYgbCA3LjQ3LDIuODkgViAzMi4zNyBaIG0gMC43OSw5LjgzIC0wLjQsLTAuMTMgdiAtOC43OCBsIDAuNCwtMC4xMyAwLjM5LC0wLjE0IDAuMzksLTAuMTMgdiA5LjU3IGwgLTAuMzksLTAuMTMgeiBtIDEuOTYsMC41MiAtMC41MiwtMC4xMyB2IC05LjgzIGwgMC41MiwtMC4xMyAwLjUzLC0wLjEzIDAuNTIsLTAuMTMgViA0NS43MyBMIDE0LjE2LDQ1LjYgWiBtIDIuMzYsMC43OSAtMC42NSwtMC4yNiBWIDM0LjczIGwgMC42NSwtMC4xMyAwLjY2LC0wLjI3IDAuNzgsLTAuMjYgdiAxMi40NSBsIC0wLjc4LC0wLjI2IHoiLz4mI3hhOyYjeGE7PHBhdGggaWQ9InBhdGg1NTkwMCIgaW5rc2NhcGU6Y29ubmVjdG9yLWN1cnZhdHVyZT0iMCIgc3R5bGU9ImZpbGw6IzgwNDk5OCIgZD0iTSA1My40Nyw0NC41NiA0My4zOCw0OC40OSBWIDMyLjI0IGwgMTAuMDksMy41NCB6Ii8+JiN4YTsmI3hhOzxwYXRoIGlkPSJwYXRoNTU5MDgiIGlua3NjYXBlOmNvbm5lY3Rvci1jdXJ2YXR1cmU9IjAiIHN0eWxlPSJmaWxsOiM4MDQ5OTgiIGQ9Ik0gMzQuMzMsMzQuOTkgViA0NS42IGwgNy40NywyLjg5IFYgMzIuMzcgWiBtIDAuNzksOS44MyAtMC40LC0wLjEzIHYgLTguNzggbCAwLjQsLTAuMTMgMC4zOSwtMC4xNCAwLjM5LC0wLjEzIHYgOS41NyBsIC0wLjM5LC0wLjEzIHogbSAxLjk2LDAuNTIgLTAuNTIsLTAuMTMgdiAtOS44MyBsIDAuNTIsLTAuMTMgMC41MywtMC4xMyAwLjUyLC0wLjEzIFYgNDUuNzMgTCAzNy42MSw0NS42IFogbSAyLjM2LDAuNzkgLTAuNjUsLTAuMjYgViAzNC43MyBsIDAuNjUsLTAuMTMgMC42NiwtMC4yNyAwLjc4LC0wLjI2IFYgNDYuNTIgTCA0MC4xLDQ2LjI2IFoiLz4mI3hhOyYjeGE7PHBhdGggaWQ9InBhdGg1NTkxNiIgaW5rc2NhcGU6Y29ubmVjdG9yLWN1cnZhdHVyZT0iMCIgc3R5bGU9ImZpbGw6IzgwNDk5OCIgZD0ibSA0Mi40NiwyOC40NCAtOS45NiwzLjggViAxNi4xMiBsIDkuOTYsMy41NCB6Ii8+JiN4YTsmI3hhOzxwYXRoIGlkPSJwYXRoNTU5MjQiIGlua3NjYXBlOmNvbm5lY3Rvci1jdXJ2YXR1cmU9IjAiIHN0eWxlPSJmaWxsOiM4MDQ5OTgiIGQ9Im0gMjMuMzMsMTguNzQgdiAxMC42MSBsIDcuNDcsMi44OSBWIDE2LjEyIFogbSAwLjc5LDkuODMgLTAuNCwtMC4xMyB2IC04Ljc4IGwgMC40LC0wLjEzIDAuMzksLTAuMTQgMC4zOSwtMC4xMyB2IDkuNTcgTCAyNC41MSwyOC43IFogbSAxLjk2LDAuNjUgLTAuNTIsLTAuMTMgdiAtOS44MyBsIDAuNTIsLTAuMTMgMC41MywtMC4xMyAwLjUyLC0wLjEzIHYgMTAuNzUgbCAtMC41MiwtMC4xNCB6IG0gMi4zNiwwLjc5IC0wLjY1LC0wLjI2IFYgMTguNjEgbCAwLjY1LC0wLjEzIDAuNjYsLTAuMjcgMC43OCwtMC4yNiBWIDMwLjQgTCAyOS4xLDMwLjE0IFoiLz4mI3hhOyYjeGE7PHBhdGggaWQ9InBhdGg1NTkzMiIgaW5rc2NhcGU6Y29ubmVjdG9yLWN1cnZhdHVyZT0iMCIgc3R5bGU9ImZpbGw6IzgwNDk5OCIgZD0ibSAxOS4xMywyOC40NCAtOS45NiwzLjggViAxNi4xMiBsIDkuOTYsMy41NCB6Ii8+JiN4YTsmI3hhOzxwYXRoIGlkPSJwYXRoNTU5NDAiIGlua3NjYXBlOmNvbm5lY3Rvci1jdXJ2YXR1cmU9IjAiIHN0eWxlPSJmaWxsOiM4MDQ5OTgiIGQ9Im0gMCwxOC43NCB2IDEwLjYxIGwgNy40NywyLjg5IFYgMTYuMTIgWiBtIDAuNzksOS44MyAtMC40LC0wLjEzIHYgLTguNzggbCAwLjQsLTAuMTMgMC4zOSwtMC4xNCAwLjM5LC0wLjEzIHYgOS41NyBMIDEuMTgsMjguNyBaIE0gMi43NSwyOS4yMiAyLjIzLDI5LjA5IFYgMTkuMjYgTCAyLjc1LDE5LjEzIDMuMjgsMTkgMy44LDE4Ljg3IFYgMjkuNjIgTCAzLjI4LDI5LjQ4IFogTSA1LjExLDMwLjAxIDQuNDYsMjkuNzUgViAxOC42MSBMIDUuMTEsMTguNDggNS43NywxOC4yMSA2LjU1LDE3Ljk1IFYgMzAuNCBMIDUuNzcsMzAuMTQgWiIvPiYjeGE7JiN4YTs8cGF0aCBpZD0icGF0aDU1OTQ4IiBpbmtzY2FwZTpjb25uZWN0b3ItY3VydmF0dXJlPSIwIiBzdHlsZT0iZmlsbDojODA0OTk4IiBkPSJtIDY1LjUyLDI4LjQ0IC05Ljk2LDMuOCBWIDE2LjEyIGwgOS45NiwzLjU0IHoiLz4mI3hhOyYjeGE7JiN4YTsmI3hhOyYjeGE7JiN4YTsmI3hhOyYjeGE7JiN4YTsmI3hhOyYjeGE7JiN4YTsmI3hhOyYjeGE7JiN4YTsmI3hhOzxwYXRoIGlkPSJwYXRoNTYwMTIiIGlua3NjYXBlOmNvbm5lY3Rvci1jdXJ2YXR1cmU9IjAiIHN0eWxlPSJmaWxsOiM4MDQ5OTgiIGQ9Im0gNDYuMzksMTguNzQgdiAxMC42MSBsIDcuNDcsMi44OSBWIDE2LjEyIFogbSAwLjc5LDkuODMgLTAuNCwtMC4xMyB2IC04Ljc4IGwgMC40LC0wLjEzIDAuMzksLTAuMTQgMC4zOSwtMC4xMyB2IDkuNTcgTCA0Ny41NywyOC43IFogbSAxLjk2LDAuNjUgLTAuNTIsLTAuMTMgdiAtOS44MyBsIDAuNTIsLTAuMTMgMC41MywtMC4xMyAwLjUyLC0wLjEzIHYgMTAuNzUgbCAtMC41MiwtMC4xNCB6IG0gMi4zNiwwLjc5IC0wLjY1LC0wLjI2IFYgMTguNjEgbCAwLjY1LC0wLjEzIDAuNjYsLTAuMjcgMC43OCwtMC4yNiBWIDMwLjQgbCAtMC43OCwtMC4yNiB6Ii8+JiN4YTs8L3N2Zz4=;" vertex="1" parent="1">
          <mxGeometry x="687" y="146.425" width="52.25" height="38" as="geometry" />
        </mxCell>
        <mxCell id="e_-w4jl6vJnBpZlzhAYl-23" value="&lt;a style=&quot;font-size: 13px; text-decoration-line: none; vertical-align: middle; padding: 1px; cursor: pointer; font-family: az_ea_font, &amp;quot;Segoe UI&amp;quot;, az_font, system-ui, -apple-system, BlinkMacSystemFont, Roboto, Oxygen, Ubuntu, Cantarell, &amp;quot;Open Sans&amp;quot;, &amp;quot;Helvetica Neue&amp;quot;, sans-serif; text-align: left; background-color: rgb(237, 235, 233); outline: none !important;&quot; href=&quot;https://portal.azure.com/#@www.comunidadunir.net/resource/subscriptions/c8b29887-4024-4277-8a83-a951bff463b3/resourceGroups/cp2_resource_group/providers/microsoft.containerservice/managedClusters/aks_cluster_kubernetes&quot; tabindex=&quot;0&quot; class=&quot;fxc-gcflink-link&quot;&gt;aks_cluster_kubernetes&lt;/a&gt;" style="text;html=1;align=center;verticalAlign=middle;resizable=0;points=[];autosize=1;strokeColor=none;fillColor=none;" vertex="1" parent="1">
          <mxGeometry x="640" y="218" width="160" height="30" as="geometry" />
        </mxCell>
        <mxCell id="e_-w4jl6vJnBpZlzhAYl-30" value="Conjunto de escalas de MV" style="text;html=1;align=center;verticalAlign=middle;resizable=0;points=[];autosize=1;strokeColor=none;fillColor=none;rotation=0;" vertex="1" parent="1">
          <mxGeometry x="522.5" y="249.5" width="170" height="30" as="geometry" />
        </mxCell>
        <mxCell id="e_-w4jl6vJnBpZlzhAYl-32" value="Grupo de Seguridad" style="text;html=1;align=center;verticalAlign=middle;resizable=0;points=[];autosize=1;strokeColor=none;fillColor=none;" vertex="1" parent="1">
          <mxGeometry x="791.64" y="249.5" width="130" height="30" as="geometry" />
        </mxCell>
        <mxCell id="e_-w4jl6vJnBpZlzhAYl-41" value="azure-vote-back" style="sketch=0;html=1;dashed=0;whitespace=wrap;fillColor=#2875E2;strokeColor=#ffffff;points=[[0.005,0.63,0],[0.1,0.2,0],[0.9,0.2,0],[0.5,0,0],[0.995,0.63,0],[0.72,0.99,0],[0.5,1,0],[0.28,0.99,0]];verticalLabelPosition=bottom;align=center;verticalAlign=top;shape=mxgraph.kubernetes.icon;prIcon=node" vertex="1" parent="1">
          <mxGeometry x="930" y="544.5" width="50" height="48" as="geometry" />
        </mxCell>
        <mxCell id="e_-w4jl6vJnBpZlzhAYl-42" value="azure-vote-front" style="sketch=0;html=1;dashed=0;whitespace=wrap;fillColor=#2875E2;strokeColor=#ffffff;points=[[0.005,0.63,0],[0.1,0.2,0],[0.9,0.2,0],[0.5,0,0],[0.995,0.63,0],[0.72,0.99,0],[0.5,1,0],[0.28,0.99,0]];verticalLabelPosition=bottom;align=center;verticalAlign=top;shape=mxgraph.kubernetes.icon;prIcon=node" vertex="1" parent="1">
          <mxGeometry x="1030" y="544.5" width="50" height="48" as="geometry" />
        </mxCell>
        <mxCell id="e_-w4jl6vJnBpZlzhAYl-47" style="edgeStyle=orthogonalEdgeStyle;rounded=0;orthogonalLoop=1;jettySize=auto;html=1;entryX=0.586;entryY=0.073;entryDx=0;entryDy=0;entryPerimeter=0;" edge="1" parent="1" source="e_-w4jl6vJnBpZlzhAYl-43" target="e_-w4jl6vJnBpZlzhAYl-42">
          <mxGeometry relative="1" as="geometry">
            <mxPoint x="955" y="545" as="sourcePoint" />
          </mxGeometry>
        </mxCell>
        <mxCell id="e_-w4jl6vJnBpZlzhAYl-48" style="edgeStyle=orthogonalEdgeStyle;rounded=0;orthogonalLoop=1;jettySize=auto;html=1;" edge="1" parent="1" target="e_-w4jl6vJnBpZlzhAYl-41">
          <mxGeometry relative="1" as="geometry">
            <mxPoint x="1060" y="490" as="sourcePoint" />
          </mxGeometry>
        </mxCell>
        <mxCell id="e_-w4jl6vJnBpZlzhAYl-43" value="aks-agentpool-28408381-routetable" style="image;aspect=fixed;html=1;points=[];align=center;fontSize=12;image=img/lib/azure2/networking/Route_Tables.svg;" vertex="1" parent="1">
          <mxGeometry x="1038.71" y="402.93" width="41.29" height="40" as="geometry" />
        </mxCell>
        <mxCell id="e_-w4jl6vJnBpZlzhAYl-46" value="&lt;br&gt;Tabla de rutas" style="text;html=1;align=center;verticalAlign=middle;resizable=0;points=[];autosize=1;strokeColor=none;fillColor=none;" vertex="1" parent="1">
          <mxGeometry x="969" y="239.5" width="100" height="40" as="geometry" />
        </mxCell>
        <mxCell id="e_-w4jl6vJnBpZlzhAYl-58" style="edgeStyle=orthogonalEdgeStyle;rounded=0;orthogonalLoop=1;jettySize=auto;html=1;exitX=0;exitY=0.5;exitDx=0;exitDy=0;" edge="1" parent="1" source="e_-w4jl6vJnBpZlzhAYl-49" target="e_-w4jl6vJnBpZlzhAYl-54">
          <mxGeometry relative="1" as="geometry" />
        </mxCell>
        <mxCell id="e_-w4jl6vJnBpZlzhAYl-49" value="" style="editableCssRules=.*;html=1;shape=image;verticalLabelPosition=bottom;labelBackgroundColor=#ffffff;verticalAlign=top;aspect=fixed;imageAspect=0;image=data:image/svg+xml,PHN2ZyB4bWxucz0iaHR0cDovL3d3dy53My5vcmcvMjAwMC9zdmciIHhtbG5zOnY9Imh0dHBzOi8vdmVjdGEuaW8vbmFubyIgd2lkdGg9IjE5Ljk5OTk5ODA5MjY1MTM2NyIgaGVpZ2h0PSIyMCIgdmlld0JveD0iMCAtMi44NDIxNzA1NjE4NzU1NzQ1ZS0xNSAxOS45OTk5OTgwOTI2NTEzNjcgMjAiPiYjeGE7CTxzdHlsZSB0eXBlPSJ0ZXh0L2NzcyI+JiN4YTsJLnN0MHtmaWxsOiM0Mjg1ZjQ7fSYjeGE7CS5zdDF7ZmlsbDojNjY5ZGY2O30mI3hhOwk8L3N0eWxlPiYjeGE7CTxwYXRoIGNsYXNzPSJzdDEiIGQ9Ik0xNS40OSAxMC40djYuN2EuNC40IDAgMCAxLS40LjRIMi45YS40LjQgMCAwIDEtLjQtLjRWNC45YS40LjQgMCAwIDEgLjQtLjRoNi43YS40LjQgMCAwIDAgLjQtLjRWMi40YS40LjQgMCAwIDAtLjQtLjRILjRhLjQuNCAwIDAgMC0uNC40djE3LjJhLjQuNCAwIDAgMCAuNC40aDE3LjJhLjQuNCAwIDAgMCAuNC0uNHYtOS4yYS40LjQgMCAwIDAtLjQtLjRoLTEuNzFhLjQuNCAwIDAgMC0uNC40eiIvPiYjeGE7CTxwYXRoIGNsYXNzPSJzdDAiIGQ9Ik0xMiAuNHY3LjJhLjQuNCAwIDAgMCAuNC40aDcuMmEuNC40IDAgMCAwIC40LS40Vi40YS40LjQgMCAwIDAtLjQtLjRoLTcuMmEuNC40IDAgMCAwLS40LjR6bTUuNiA0LjFoLTEuNzFhLjQuNCAwIDAgMS0uNC0uNFYyLjRhLjQuNCAwIDAgMSAuNC0uNGgxLjcxYS40LjQgMCAwIDEgLjQuNHYxLjdhLjQuNCAwIDAgMS0uNC40eiIvPiYjeGE7PC9zdmc+;" vertex="1" parent="1">
          <mxGeometry x="701.25" y="690" width="38" height="38" as="geometry" />
        </mxCell>
        <mxCell id="e_-w4jl6vJnBpZlzhAYl-50" value="&lt;h2 style=&quot;margin: 0px 16px 0px 0px; overflow: hidden; text-overflow: ellipsis; line-height: 28px; flex: 0 1 auto; color: rgb(41, 40, 39); font-family: az_ea_font, &amp;quot;Segoe UI&amp;quot;, az_font, system-ui, -apple-system, BlinkMacSystemFont, Roboto, Oxygen, Ubuntu, Cantarell, &amp;quot;Open Sans&amp;quot;, &amp;quot;Helvetica Neue&amp;quot;, sans-serif; text-align: start; background-color: rgb(255, 255, 255); outline: none !important;&quot; aria-describedby=&quot;37faeb7d-e847-4320-9b36-b5142215400c&quot; id=&quot;37faeb7d-e847-4320-9b36-b5142215400d&quot; class=&quot;fxs-blade-title-titleText msportalfx-tooltip-overflow&quot;&gt;&lt;font style=&quot;font-size: 10px;&quot;&gt;c38f38d1-1c43-4170-8b1f-81ef05c70517&lt;/font&gt;&lt;/h2&gt;" style="text;html=1;align=center;verticalAlign=middle;resizable=0;points=[];autosize=1;strokeColor=none;fillColor=none;" vertex="1" parent="1">
          <mxGeometry x="676.5" y="728" width="230" height="40" as="geometry" />
        </mxCell>
        <mxCell id="e_-w4jl6vJnBpZlzhAYl-51" value="Dirección IP pública para frontEnd" style="text;html=1;align=center;verticalAlign=middle;resizable=0;points=[];autosize=1;strokeColor=none;fillColor=none;" vertex="1" parent="1">
          <mxGeometry x="676.5" y="660" width="210" height="30" as="geometry" />
        </mxCell>
        <mxCell id="e_-w4jl6vJnBpZlzhAYl-59" style="edgeStyle=orthogonalEdgeStyle;rounded=0;orthogonalLoop=1;jettySize=auto;html=1;entryX=0.5;entryY=1;entryDx=0;entryDy=0;" edge="1" parent="1" source="e_-w4jl6vJnBpZlzhAYl-54" target="e_-w4jl6vJnBpZlzhAYl-17">
          <mxGeometry relative="1" as="geometry">
            <mxPoint x="645" y="600" as="sourcePoint" />
          </mxGeometry>
        </mxCell>
        <mxCell id="e_-w4jl6vJnBpZlzhAYl-54" value="kubernetes" style="outlineConnect=0;dashed=0;verticalLabelPosition=bottom;verticalAlign=top;align=center;html=1;shape=mxgraph.aws3.classic_load_balancer;fillColor=#F58534;gradientColor=none;" vertex="1" parent="1">
          <mxGeometry x="645.4499999999999" y="580" width="42.22" height="40" as="geometry" />
        </mxCell>
        <mxCell id="e_-w4jl6vJnBpZlzhAYl-56" value="Loadbalancer" style="text;html=1;align=center;verticalAlign=middle;resizable=0;points=[];autosize=1;strokeColor=none;fillColor=none;" vertex="1" parent="1">
          <mxGeometry x="540" y="590" width="100" height="30" as="geometry" />
        </mxCell>
        <mxCell id="e_-w4jl6vJnBpZlzhAYl-69" style="edgeStyle=orthogonalEdgeStyle;rounded=0;orthogonalLoop=1;jettySize=auto;html=1;exitX=1;exitY=0.5;exitDx=0;exitDy=0;" edge="1" parent="1" source="e_-w4jl6vJnBpZlzhAYl-60" target="e_-w4jl6vJnBpZlzhAYl-9">
          <mxGeometry relative="1" as="geometry" />
        </mxCell>
        <mxCell id="e_-w4jl6vJnBpZlzhAYl-60" value="" style="editableCssRules=.*;html=1;shape=image;verticalLabelPosition=bottom;labelBackgroundColor=#ffffff;verticalAlign=top;aspect=fixed;imageAspect=0;image=data:image/svg+xml,PHN2ZyB4bWxucz0iaHR0cDovL3d3dy53My5vcmcvMjAwMC9zdmciIHhtbG5zOnY9Imh0dHBzOi8vdmVjdGEuaW8vbmFubyIgd2lkdGg9IjE5Ljk5OTk5ODA5MjY1MTM2NyIgaGVpZ2h0PSIyMCIgdmlld0JveD0iMCAtMi44NDIxNzA1NjE4NzU1NzQ1ZS0xNSAxOS45OTk5OTgwOTI2NTEzNjcgMjAiPiYjeGE7CTxzdHlsZSB0eXBlPSJ0ZXh0L2NzcyI+JiN4YTsJLnN0MHtmaWxsOiM0Mjg1ZjQ7fSYjeGE7CS5zdDF7ZmlsbDojNjY5ZGY2O30mI3hhOwk8L3N0eWxlPiYjeGE7CTxwYXRoIGNsYXNzPSJzdDEiIGQ9Ik0xNS40OSAxMC40djYuN2EuNC40IDAgMCAxLS40LjRIMi45YS40LjQgMCAwIDEtLjQtLjRWNC45YS40LjQgMCAwIDEgLjQtLjRoNi43YS40LjQgMCAwIDAgLjQtLjRWMi40YS40LjQgMCAwIDAtLjQtLjRILjRhLjQuNCAwIDAgMC0uNC40djE3LjJhLjQuNCAwIDAgMCAuNC40aDE3LjJhLjQuNCAwIDAgMCAuNC0uNHYtOS4yYS40LjQgMCAwIDAtLjQtLjRoLTEuNzFhLjQuNCAwIDAgMC0uNC40eiIvPiYjeGE7CTxwYXRoIGNsYXNzPSJzdDAiIGQ9Ik0xMiAuNHY3LjJhLjQuNCAwIDAgMCAuNC40aDcuMmEuNC40IDAgMCAwIC40LS40Vi40YS40LjQgMCAwIDAtLjQtLjRoLTcuMmEuNC40IDAgMCAwLS40LjR6bTUuNiA0LjFoLTEuNzFhLjQuNCAwIDAgMS0uNC0uNFYyLjRhLjQuNCAwIDAgMSAuNC0uNGgxLjcxYS40LjQgMCAwIDEgLjQuNHYxLjdhLjQuNCAwIDAgMS0uNC40eiIvPiYjeGE7PC9zdmc+;" vertex="1" parent="1">
          <mxGeometry x="111" y="239.5" width="38" height="38" as="geometry" />
        </mxCell>
        <mxCell id="e_-w4jl6vJnBpZlzhAYl-61" value="&lt;h2 style=&quot;margin: 0px 16px 0px 0px; overflow: hidden; text-overflow: ellipsis; line-height: 28px; flex: 0 1 auto; text-align: start; background-color: rgb(255, 255, 255); outline: none !important;&quot; aria-describedby=&quot;37faeb7d-e847-4320-9b36-b5142215400c&quot; id=&quot;37faeb7d-e847-4320-9b36-b5142215400d&quot; class=&quot;fxs-blade-title-titleText msportalfx-tooltip-overflow&quot;&gt;&lt;font face=&quot;az_ea_font, Segoe UI, az_font, system-ui, -apple-system, BlinkMacSystemFont, Roboto, Oxygen, Ubuntu, Cantarell, Open Sans, Helvetica Neue, sans-serif&quot; color=&quot;#292827&quot;&gt;podmanVM_public_ip&lt;/font&gt;&lt;br&gt;&lt;/h2&gt;" style="text;html=1;align=center;verticalAlign=middle;resizable=0;points=[];autosize=1;strokeColor=none;fillColor=none;" vertex="1" parent="1">
          <mxGeometry x="20" y="278.5" width="220" height="40" as="geometry" />
        </mxCell>
        <mxCell id="e_-w4jl6vJnBpZlzhAYl-62" value="Dirección IP pública Apache" style="text;html=1;align=center;verticalAlign=middle;resizable=0;points=[];autosize=1;strokeColor=none;fillColor=none;" vertex="1" parent="1">
          <mxGeometry x="30" y="317" width="170" height="30" as="geometry" />
        </mxCell>
        <mxCell id="e_-w4jl6vJnBpZlzhAYl-68" style="edgeStyle=orthogonalEdgeStyle;rounded=0;orthogonalLoop=1;jettySize=auto;html=1;exitX=0.966;exitY=0.724;exitDx=0;exitDy=0;exitPerimeter=0;" edge="1" parent="1" source="e_-w4jl6vJnBpZlzhAYl-63" target="e_-w4jl6vJnBpZlzhAYl-60">
          <mxGeometry relative="1" as="geometry" />
        </mxCell>
        <mxCell id="e_-w4jl6vJnBpZlzhAYl-63" value="Acceso desde&amp;nbsp;&lt;br&gt;intenet" style="aspect=fixed;html=1;perimeter=none;align=center;shadow=0;dashed=0;image;fontSize=12;image=img/lib/mscae/PersonWithFriend.svg;labelBackgroundColor=#ffffff;fillColor=#4D9900;" vertex="1" parent="1">
          <mxGeometry x="70" y="10" width="62.13" height="61.5" as="geometry" />
        </mxCell>
        <mxCell id="e_-w4jl6vJnBpZlzhAYl-70" value="" style="shape=image;verticalLabelPosition=bottom;labelBackgroundColor=#ffffff;verticalAlign=top;aspect=fixed;imageAspect=0;image=data:image/svg+xml,PHN2ZyB4bWxuczpkYz0iaHR0cDovL3B1cmwub3JnL2RjL2VsZW1lbnRzLzEuMS8iIHhtbG5zOmNjPSJodHRwOi8vY3JlYXRpdmVjb21tb25zLm9yZy9ucyMiIHhtbG5zOnJkZj0iaHR0cDovL3d3dy53My5vcmcvMTk5OS8wMi8yMi1yZGYtc3ludGF4LW5zIyIgeG1sbnM6c3ZnPSJodHRwOi8vd3d3LnczLm9yZy8yMDAwL3N2ZyIgeG1sbnM9Imh0dHA6Ly93d3cudzMub3JnLzIwMDAvc3ZnIiB4bWxuczpzb2RpcG9kaT0iaHR0cDovL3NvZGlwb2RpLnNvdXJjZWZvcmdlLm5ldC9EVEQvc29kaXBvZGktMC5kdGQiIHhtbG5zOmlua3NjYXBlPSJodHRwOi8vd3d3Lmlua3NjYXBlLm9yZy9uYW1lc3BhY2VzL2lua3NjYXBlIiB2ZXJzaW9uPSIxLjEiIGlkPSJzdmc2NTMyNCIgaW5rc2NhcGU6dmVyc2lvbj0iMC45Mi4zICgyNDA1NTQ2LCAyMDE4LTAzLTExKSIgc29kaXBvZGk6ZG9jbmFtZT0iYXp1cmVfdmlydHVhbF9tYWNoaW5lc19hdmFpbGFiaWxpdHlfc2V0LnN2ZyIgeD0iMHB4IiB5PSIwcHgiIHZpZXdCb3g9IjAgMCAzNy41MDAwMDEgMzcuNSIgeG1sOnNwYWNlPSJwcmVzZXJ2ZSIgd2lkdGg9IjM3LjUiIGhlaWdodD0iMzcuNSI+PG1ldGFkYXRhIGlkPSJtZXRhZGF0YTIwNjI1Ij48cmRmOlJERj48Y2M6V29yayByZGY6YWJvdXQ9IiI+PGRjOmZvcm1hdD5pbWFnZS9zdmcreG1sPC9kYzpmb3JtYXQ+PGRjOnR5cGUgcmRmOnJlc291cmNlPSJodHRwOi8vcHVybC5vcmcvZGMvZGNtaXR5cGUvU3RpbGxJbWFnZSIvPjxkYzp0aXRsZS8+PC9jYzpXb3JrPjwvcmRmOlJERj48L21ldGFkYXRhPjxkZWZzIGlkPSJkZWZzMjA2MjMiPiYjeGE7CSYjeGE7JiN4YTsJJiN4YTsmI3hhOwkmI3hhOyYjeGE7CSYjeGE7JiN4YTsJJiN4YTsmI3hhOwkmI3hhOyYjeGE7CSYjeGE7JiN4YTsJJiN4YTsmI3hhOwkmI3hhOyYjeGE7CSYjeGE7JiN4YTsJJiN4YTsmI3hhOwkmI3hhOyYjeGE7CSYjeGE7JiN4YTsJJiN4YTsmI3hhOwkmI3hhOyYjeGE7CSYjeGE7JiN4YTsJJiN4YTsmI3hhOwkmI3hhOyYjeGE7CSYjeGE7JiN4YTsJJiN4YTsmI3hhOwkmI3hhOyYjeGE7CSYjeGE7JiN4YTsJJiN4YTsmI3hhOwkmI3hhOyYjeGE7CSYjeGE7JiN4YTsJJiN4YTsmI3hhOwkmI3hhOyYjeGE7CSYjeGE7JiN4YTsJJiN4YTsmI3hhOwkmI3hhOzwvZGVmcz4mI3hhOzxmaWx0ZXIgaWQ9ImZpbHRlcl8yIj4mI3hhOwk8ZmVHYXVzc2lhbkJsdXIgaWQ9ImZlR2F1c3NpYW5CbHVyNjUwNzMiIHN0ZERldmlhdGlvbj0iMiIvPiYjeGE7PC9maWx0ZXI+JiN4YTs8c29kaXBvZGk6bmFtZWR2aWV3IGJvcmRlcmNvbG9yPSIjNjY2NjY2IiBib3JkZXJvcGFjaXR5PSIxIiBmaXQtbWFyZ2luLWJvdHRvbT0iMCIgZml0LW1hcmdpbi1sZWZ0PSIwIiBmaXQtbWFyZ2luLXJpZ2h0PSIwIiBmaXQtbWFyZ2luLXRvcD0iMCIgZ3JpZHRvbGVyYW5jZT0iMTAiIGd1aWRldG9sZXJhbmNlPSIxMCIgaWQ9Im5hbWVkdmlldzY1MzI2IiBpbmtzY2FwZTpjdXJyZW50LWxheWVyPSJzdmc2NTMyNCIgaW5rc2NhcGU6Y3g9IjE2Ljc5NTQ4MyIgaW5rc2NhcGU6Y3k9IjE2LjMxNjg3NSIgaW5rc2NhcGU6cGFnZW9wYWNpdHk9IjAiIGlua3NjYXBlOnBhZ2VzaGFkb3c9IjIiIGlua3NjYXBlOndpbmRvdy1oZWlnaHQ9IjEwMTciIGlua3NjYXBlOndpbmRvdy1tYXhpbWl6ZWQ9IjEiIGlua3NjYXBlOndpbmRvdy13aWR0aD0iMTkyMCIgaW5rc2NhcGU6d2luZG93LXg9Ii04IiBpbmtzY2FwZTp3aW5kb3cteT0iLTgiIGlua3NjYXBlOnpvb209IjE0Ljk0ODI2OCIgb2JqZWN0dG9sZXJhbmNlPSIxMCIgcGFnZWNvbG9yPSIjZmZmZmZmIiBzaG93Z3JpZD0iZmFsc2UiPiYjeGE7CTwvc29kaXBvZGk6bmFtZWR2aWV3PiYjeGE7JiN4YTs8cmVjdCBpZD0icmVjdDY1MDg2IiB4PSIxNi4yNSIgeT0iMCIgc3R5bGU9ImZpbGw6IzU5YjRkOSIgd2lkdGg9IjUiIGhlaWdodD0iMy43NSIvPiYjeGE7JiN4YTs8cmVjdCBpZD0icmVjdDY1MDk0IiB4PSI4Ljc1IiB5PSIwIiBzdHlsZT0iZmlsbDojNTliNGQ5IiB3aWR0aD0iNSIgaGVpZ2h0PSIzLjc1Ii8+JiN4YTsmI3hhOzxwYXRoIGlkPSJwYXRoNjUxMDIiIGlua3NjYXBlOmNvbm5lY3Rvci1jdXJ2YXR1cmU9IjAiIHN0eWxlPSJmaWxsOiM1OWI0ZDkiIGQ9Im0gMzMuNzUwMDAxLDMzLjc1IGggLTIuNSB2IDMuNzUgaCAzLjc1IGMgMS4zOCwwIDIuNSwtMS4xMiAyLjUsLTIuNSB2IC0zLjc1IGggLTMuNzUgeiIvPiYjeGE7JiN4YTs8cmVjdCBpZD0icmVjdDY1MTEwIiB4PSIwIiB5PSIyMy43NSIgc3R5bGU9ImZpbGw6IzU5YjRkOSIgd2lkdGg9IjMuNzUiIGhlaWdodD0iNSIvPiYjeGE7JiN4YTs8cmVjdCBpZD0icmVjdDY1MTE4IiB4PSIxNi4yNSIgeT0iMzMuNzUiIHN0eWxlPSJmaWxsOiM1OWI0ZDkiIHdpZHRoPSI1IiBoZWlnaHQ9IjMuNzUiLz4mI3hhOyYjeGE7PHJlY3QgaWQ9InJlY3Q2NTEyNiIgeD0iMzMuNzUiIHk9IjIzLjc1IiBzdHlsZT0iZmlsbDojNTliNGQ5IiB3aWR0aD0iMy43NSIgaGVpZ2h0PSI1Ii8+JiN4YTsmI3hhOzxyZWN0IGlkPSJyZWN0NjUxMzQiIHg9IjIzLjc1IiB5PSIzMy43NSIgc3R5bGU9ImZpbGw6IzU5YjRkOSIgd2lkdGg9IjUiIGhlaWdodD0iMy43NSIvPiYjeGE7JiN4YTs8cmVjdCBpZD0icmVjdDY1MTQyIiB4PSI4Ljc1IiB5PSIzMy43NSIgc3R5bGU9ImZpbGw6IzU5YjRkOSIgd2lkdGg9IjUiIGhlaWdodD0iMy43NSIvPiYjeGE7JiN4YTs8cGF0aCBpZD0icGF0aDY1MTUwIiBpbmtzY2FwZTpjb25uZWN0b3ItY3VydmF0dXJlPSIwIiBzdHlsZT0iZmlsbDojNTliNGQ5IiBkPSJtIDMuNzUwMDAxMiwzMy43NSB2IC0yLjUgSCAxLjIyMDcwMzFlLTYgViAzNSBjIDAsMS4zOCAxLjExOTk5OTk3OTI5NjksMi41IDIuNDk5OTk5OTc5Mjk2OSwyLjUgaCAzLjc1IHYgLTMuNzUgeiIvPiYjeGE7JiN4YTs8cmVjdCBpZD0icmVjdDY1MTU4IiB4PSIwIiB5PSI4Ljc1IiBzdHlsZT0iZmlsbDojNTliNGQ5IiB3aWR0aD0iMy43NSIgaGVpZ2h0PSI1Ii8+JiN4YTsmI3hhOzxwYXRoIGlkPSJwYXRoNjUxNjYiIGlua3NjYXBlOmNvbm5lY3Rvci1jdXJ2YXR1cmU9IjAiIHN0eWxlPSJmaWxsOiM1OWI0ZDkiIGQ9Im0gMy43NTAwMDEyLDMuNzUgaCAyLjUgViAwIGggLTMuNzUgQyAxLjEyMDAwMTIsMCAxLjIyMDcwMzFlLTYsMS4xMiAxLjIyMDcwMzFlLTYsMi41IFYgNi4yNSBIIDMuNzUwMDAxMiBaIi8+JiN4YTsmI3hhOzxyZWN0IGlkPSJyZWN0NjUxNzQiIHg9IjAiIHk9IjE2LjI1IiBzdHlsZT0iZmlsbDojNTliNGQ5IiB3aWR0aD0iMy43NSIgaGVpZ2h0PSI1Ii8+JiN4YTsmI3hhOzxyZWN0IGlkPSJyZWN0NjUxODIiIHg9IjMzLjc1IiB5PSIxNi4yNSIgc3R5bGU9ImZpbGw6IzU5YjRkOSIgd2lkdGg9IjMuNzUiIGhlaWdodD0iNSIvPiYjeGE7JiN4YTs8cmVjdCBpZD0icmVjdDY1MTkwIiB4PSIzMy43NSIgeT0iOC43NSIgc3R5bGU9ImZpbGw6IzU5YjRkOSIgd2lkdGg9IjMuNzUiIGhlaWdodD0iNSIvPiYjeGE7JiN4YTs8cmVjdCBpZD0icmVjdDY1MTk4IiB4PSIyMy43NSIgeT0iMCIgc3R5bGU9ImZpbGw6IzU5YjRkOSIgd2lkdGg9IjUiIGhlaWdodD0iMy43NSIvPiYjeGE7JiN4YTs8cGF0aCBpZD0icGF0aDY1MjA2IiBpbmtzY2FwZTpjb25uZWN0b3ItY3VydmF0dXJlPSIwIiBzdHlsZT0iZmlsbDojNTliNGQ5IiBkPSJtIDMzLjc1MDAwMSwzLjc1IHYgMi41IGggMy43NSBWIDIuNSBjIDAsLTEuMzggLTEuMTIsLTIuNSAtMi41LC0yLjUgaCAtMy43NSB2IDMuNzUgeiIvPiYjeGE7JiN4YTs8cGF0aCBpZD0icGF0aDY1MjE0IiBpbmtzY2FwZTpjb25uZWN0b3ItY3VydmF0dXJlPSIwIiBzdHlsZT0iZmlsbDojYTBhMWEyIiBkPSJNIDI2LjQ5MDAwMSw2LjcyIEggNy40NjAwMDEyIGMgLTAuNjUsMCAtMS4xNywwLjU4IC0xLjE3LDEuMjIgViAyMS4yIGMgMCwwLjY0IDAuNTIsMS4yMSAxLjE3LDEuMjEgSCAyNi40OTAwMDEgYyAwLjY1LDAgMS4zLC0wLjU3IDEuMywtMS4yMSBWIDcuOTQgYyAwLC0wLjY1IC0wLjY1LC0xLjIyIC0xLjMsLTEuMjIgeiIvPiYjeGE7JiN4YTs8cGF0aCBpZD0icGF0aDY1MjIyIiBpbmtzY2FwZTpjb25uZWN0b3ItY3VydmF0dXJlPSIwIiBzdHlsZT0iZmlsbDojZmZmZmZmO2ZpbGwtb3BhY2l0eTowLjIiIGQ9Im0gMjYuNTEwMDAxLDYuNzIgYyAtMC4wMSwwIC0wLjAxLDAgLTAuMDIsMCBIIDcuNDYwMDAxMiBjIC0wLjY1LDAgLTEuMTcsMC41OCAtMS4xNywxLjIyIFYgMjEuMiBjIDAsMC42NCAwLjUyLDEuMjEgMS4xNywxLjIxIGggMC40NSB6Ii8+JiN4YTsmI3hhOzxwYXRoIGlkPSJwYXRoNjUyMzAiIGlua3NjYXBlOmNvbm5lY3Rvci1jdXJ2YXR1cmU9IjAiIHN0eWxlPSJmaWxsOiM1OWI0ZDkiIGQ9Ik0gMjYuMTYwMDAxLDIwLjc2IEggNy45MjAwMDEyIFYgOC4zNyBMIDI2LjE2MDAwMSw4LjM1IFoiLz4mI3hhOyYjeGE7PHBhdGggaWQ9InBhdGg2NTIzOCIgaW5rc2NhcGU6Y29ubmVjdG9yLWN1cnZhdHVyZT0iMCIgc3R5bGU9ImZpbGw6I2I4ZDQzMiIgZD0ibSAxNy4yNzAwMDEsNy42MiBjIDAsMC4xNiAtMC4xNCwwLjMgLTAuMzEsMC4zIC0wLjE2LDAgLTAuMywtMC4xNCAtMC4zLC0wLjMgMCwtMC4xNyAwLjE0LC0wLjMxIDAuMywtMC4zMSAwLjE3LDAgMC4zMSwwLjE0IDAuMzEsMC4zMSB6Ii8+JiN4YTsmI3hhOzxwYXRoIGlkPSJwYXRoNjUyNDYiIGlua3NjYXBlOmNvbm5lY3Rvci1jdXJ2YXR1cmU9IjAiIHN0eWxlPSJmaWxsOiNmZmZmZmYiIGQ9Im0gMTcuMjgwMDAxLDE0LjE5IGMgLTAuMDIsMCAtMC4wNCwtMC4wMSAtMC4wNiwtMC4wMiBsIC0zLjc4LC0yLjE4IGMgLTAuMDQsLTAuMDIgLTAuMDYsLTAuMDYgLTAuMDYsLTAuMSAwLC0wLjA0IDAuMDIsLTAuMDggMC4wNiwtMC4xIGwgMy43NiwtMi4xNyBjIDAuMDQsLTAuMDEgMC4wOCwtMC4wMSAwLjExLDAgbCAzLjc5LDIuMTkgYyAwLjA0LDAuMDIgMC4wNiwwLjA2IDAuMDYsMC4xIDAsMC4wNCAtMC4wMiwwLjA4IC0wLjA2LDAuMSBsIC0zLjc2LDIuMTYgYyAtMC4wMiwwLjAxIC0wLjA0LDAuMDIgLTAuMDYsMC4wMiB6Ii8+JiN4YTsmI3hhOzxwYXRoIGlkPSJwYXRoNjUyNTQiIGlua3NjYXBlOmNvbm5lY3Rvci1jdXJ2YXR1cmU9IjAiIHN0eWxlPSJmaWxsOiM3YTdhN2EiIGQ9Im0gMjMuNjUwMDAxLDI2LjY1IGggLTAuNTEgLTUuMDcgLTAuMjYgYyAwLjcsMi40OCAtMC4yNSwyLjgzIC00LjM4LDIuODMgdiAxLjMgaCA1LjI2IDMuODQgNC45NiB2IC0xLjMgYyAtNC4xNCwwIC00LjU0LC0wLjM1IC0zLjg0LC0yLjgzIHoiLz4mI3hhOyYjeGE7PHBhdGggaWQ9InBhdGg2NTI2MiIgaW5rc2NhcGU6Y29ubmVjdG9yLWN1cnZhdHVyZT0iMCIgc3R5bGU9ImZpbGw6I2EwYTFhMiIgZD0ibSAyOS45MDAwMDEsMTAuOTYgaCAtMTkuMDMgYyAtMC42NSwwIC0xLjE2OTk5OTgsMC41OCAtMS4xNjk5OTk4LDEuMjIgdiAxMy4yNiBjIDAsMC42NCAwLjUxOTk5OTgsMS4yMSAxLjE2OTk5OTgsMS4yMSBoIDE5LjAzIGMgMC42NSwwIDEuMywtMC41NyAxLjMsLTEuMjEgViAxMi4xOCBjIDAsLTAuNjUgLTAuNjUsLTEuMjIgLTEuMywtMS4yMiB6Ii8+JiN4YTsmI3hhOzxwYXRoIGlkPSJwYXRoNjUyNzAiIGlua3NjYXBlOmNvbm5lY3Rvci1jdXJ2YXR1cmU9IjAiIHN0eWxlPSJmaWxsOiNmZmZmZmY7ZmlsbC1vcGFjaXR5OjAuMiIgZD0ibSAyOS45MjAwMDEsMTAuOTYgYyAtMC4wMSwwIC0wLjAxLDAgLTAuMDIsMCBoIC0xOS4wMyBjIC0wLjY1LDAgLTEuMTY5OTk5OCwwLjU4IC0xLjE2OTk5OTgsMS4yMiB2IDEzLjI2IGMgMCwwLjY0IDAuNTE5OTk5OCwxLjIxIDEuMTY5OTk5OCwxLjIxIGggMC40NSB6Ii8+JiN4YTsmI3hhOzxwYXRoIGlkPSJwYXRoNjUyNzgiIGlua3NjYXBlOmNvbm5lY3Rvci1jdXJ2YXR1cmU9IjAiIHN0eWxlPSJmaWxsOiM1OWI0ZDkiIGQ9Im0gMjkuNTcwMDAxLDI1IGggLTE4LjI0IFYgMTIuNjEgbCAxOC4yNCwtMC4wMiB6Ii8+JiN4YTsmI3hhOzxyZWN0IGlkPSJyZWN0NjUyODYiIHg9IjEzLjQzIiB5PSIyOS40OCIgc3R5bGU9ImZpbGw6I2EwYTFhMiIgd2lkdGg9IjE0LjA2IiBoZWlnaHQ9IjEuMyIvPiYjeGE7JiN4YTs8cGF0aCBpZD0icGF0aDY1Mjk0IiBpbmtzY2FwZTpjb25uZWN0b3ItY3VydmF0dXJlPSIwIiBzdHlsZT0iZmlsbDojYjhkNDMyIiBkPSJtIDIwLjY4MDAwMSwxMS44NyBjIDAsMC4xNiAtMC4xNCwwLjMgLTAuMzEsMC4zIC0wLjE2LDAgLTAuMywtMC4xNCAtMC4zLC0wLjMgMCwtMC4xNyAwLjE0LC0wLjMxIDAuMywtMC4zMSAwLjE3LDAgMC4zMSwwLjE0IDAuMzEsMC4zMSB6Ii8+JiN4YTsmI3hhOzxwYXRoIGlkPSJwYXRoNjUzMDIiIGlua3NjYXBlOmNvbm5lY3Rvci1jdXJ2YXR1cmU9IjAiIHN0eWxlPSJmaWxsOiNmZmZmZmYiIGQ9Im0gMjAuNjkwMDAxLDE4LjQzIGMgLTAuMDIsMCAtMC4wNCwtMC4wMSAtMC4wNiwtMC4wMiBsIC0zLjc4LC0yLjE4IGMgLTAuMDQsLTAuMDIgLTAuMDYsLTAuMDYgLTAuMDYsLTAuMSAwLC0wLjA0IDAuMDIsLTAuMDggMC4wNiwtMC4xIGwgMy43NiwtMi4xNyBjIDAuMDQsLTAuMDEgMC4wOCwtMC4wMSAwLjExLDAgbCAzLjc5LDIuMTkgYyAwLjA0LDAuMDIgMC4wNiwwLjA2IDAuMDYsMC4xIDAsMC4wNCAtMC4wMiwwLjA4IC0wLjA2LDAuMSBsIC0zLjc2LDIuMTYgYyAtMC4wMiwwLjAxIC0wLjA0LDAuMDIgLTAuMDYsMC4wMiB6Ii8+JiN4YTsmI3hhOzxwYXRoIGlkPSJwYXRoNjUzMTAiIGlua3NjYXBlOmNvbm5lY3Rvci1jdXJ2YXR1cmU9IjAiIHN0eWxlPSJmaWxsOiNmZmZmZmY7ZmlsbC1vcGFjaXR5OjAuNyIgZD0ibSAyMC4xNDAwMDEsMjMuNzQgYyAtMC4wMiwwIC0wLjA0LC0wLjAxIC0wLjA2LC0wLjAxIGwgLTMuNzcsLTIuMTggYyAtMC4wNCwtMC4wMiAtMC4wNiwtMC4wNiAtMC4wNiwtMC4xIHYgLTQuMzcgYyAwLC0wLjA0IDAuMDIsLTAuMDcgMC4wNiwtMC4xIDAuMDMsLTAuMDIgMC4wOCwtMC4wMiAwLjExLDAgbCAzLjc4LDIuMTggYyAwLjAzLDAuMDIgMC4wNSwwLjA2IDAuMDUsMC4xIHYgNC4zNyBjIDAsMC4wNCAtMC4wMiwwLjA3IC0wLjA1LDAuMSAtMC4wMiwwIC0wLjA0LDAuMDEgLTAuMDYsMC4wMSB6Ii8+JiN4YTsmI3hhOzxwYXRoIGlkPSJwYXRoNjUzMTgiIGlua3NjYXBlOmNvbm5lY3Rvci1jdXJ2YXR1cmU9IjAiIHN0eWxlPSJmaWxsOiNmZmZmZmY7ZmlsbC1vcGFjaXR5OjAuNCIgZD0ibSAyMS4yMTAwMDEsMjMuNzQgYyAtMC4wMiwwIC0wLjA0LC0wLjAxIC0wLjA1LC0wLjAxIC0wLjA0LC0wLjAzIC0wLjA2LC0wLjA2IC0wLjA2LC0wLjEgdiAtNC4zNCBjIDAsLTAuMDQgMC4wMiwtMC4wOCAwLjA2LC0wLjEgbCAzLjc3LC0yLjE4IGMgMC4wNCwtMC4wMiAwLjA4LC0wLjAyIDAuMTEsMCAwLjA0LDAuMDIgMC4wNiwwLjA2IDAuMDYsMC4xIHYgNC4zNCBjIDAsMC4wNCAtMC4wMiwwLjA4IC0wLjA2LDAuMSBsIC0zLjc3LDIuMTggYyAtMC4wMiwwIC0wLjA0LDAuMDEgLTAuMDYsMC4wMSB6Ii8+JiN4YTs8L3N2Zz4=;" vertex="1" parent="1">
          <mxGeometry x="308" y="364.965" width="78" height="78" as="geometry" />
        </mxCell>
        <mxCell id="e_-w4jl6vJnBpZlzhAYl-77" style="edgeStyle=orthogonalEdgeStyle;rounded=0;orthogonalLoop=1;jettySize=auto;html=1;exitX=1;exitY=0.5;exitDx=0;exitDy=0;" edge="1" parent="1" source="e_-w4jl6vJnBpZlzhAYl-72" target="e_-w4jl6vJnBpZlzhAYl-70">
          <mxGeometry relative="1" as="geometry" />
        </mxCell>
        <mxCell id="e_-w4jl6vJnBpZlzhAYl-72" value="" style="shape=image;verticalLabelPosition=bottom;labelBackgroundColor=#ffffff;verticalAlign=top;aspect=fixed;imageAspect=0;image=data:image/svg+xml,PHN2ZyB4bWxuczpkYz0iaHR0cDovL3B1cmwub3JnL2RjL2VsZW1lbnRzLzEuMS8iIHhtbG5zOmNjPSJodHRwOi8vY3JlYXRpdmVjb21tb25zLm9yZy9ucyMiIHhtbG5zOnJkZj0iaHR0cDovL3d3dy53My5vcmcvMTk5OS8wMi8yMi1yZGYtc3ludGF4LW5zIyIgeG1sbnM6c3ZnPSJodHRwOi8vd3d3LnczLm9yZy8yMDAwL3N2ZyIgeG1sbnM9Imh0dHA6Ly93d3cudzMub3JnLzIwMDAvc3ZnIiB4bWxuczp4bGluaz0iaHR0cDovL3d3dy53My5vcmcvMTk5OS94bGluayIgeG1sbnM6c29kaXBvZGk9Imh0dHA6Ly9zb2RpcG9kaS5zb3VyY2Vmb3JnZS5uZXQvRFREL3NvZGlwb2RpLTAuZHRkIiB4bWxuczppbmtzY2FwZT0iaHR0cDovL3d3dy5pbmtzY2FwZS5vcmcvbmFtZXNwYWNlcy9pbmtzY2FwZSIgdmVyc2lvbj0iMS4xIiBpZD0iTGF5ZXJfMSIgeD0iMHB4IiB5PSIwcHgiIHZpZXdCb3g9IjAgMCAxNy45Mzk5OTkgMTYuNDM5OTk5IiB4bWw6c3BhY2U9InByZXNlcnZlIiBzb2RpcG9kaTpkb2NuYW1lPSJkaXNrc19zdG9yYWdlLnN2ZyIgd2lkdGg9IjE3LjkzOTk5OSIgaGVpZ2h0PSIxNi40Mzk5OTkiIGlua3NjYXBlOnZlcnNpb249IjAuOTIuMyAoMjQwNTU0NiwgMjAxOC0wMy0xMSkiPjxtZXRhZGF0YSBpZD0ibWV0YWRhdGEzMTA3NSI+PHJkZjpSREY+PGNjOldvcmsgcmRmOmFib3V0PSIiPjxkYzpmb3JtYXQ+aW1hZ2Uvc3ZnK3htbDwvZGM6Zm9ybWF0PjxkYzp0eXBlIHJkZjpyZXNvdXJjZT0iaHR0cDovL3B1cmwub3JnL2RjL2RjbWl0eXBlL1N0aWxsSW1hZ2UiLz48ZGM6dGl0bGUvPjwvY2M6V29yaz48L3JkZjpSREY+PC9tZXRhZGF0YT48ZGVmcyBpZD0iZGVmczMxMDczIi8+PHNvZGlwb2RpOm5hbWVkdmlldyBwYWdlY29sb3I9IiNmZmZmZmYiIGJvcmRlcmNvbG9yPSIjNjY2NjY2IiBib3JkZXJvcGFjaXR5PSIxIiBvYmplY3R0b2xlcmFuY2U9IjEwIiBncmlkdG9sZXJhbmNlPSIxMCIgZ3VpZGV0b2xlcmFuY2U9IjEwIiBpbmtzY2FwZTpwYWdlb3BhY2l0eT0iMCIgaW5rc2NhcGU6cGFnZXNoYWRvdz0iMiIgaW5rc2NhcGU6d2luZG93LXdpZHRoPSIxOTIwIiBpbmtzY2FwZTp3aW5kb3ctaGVpZ2h0PSIxMDE3IiBpZD0ibmFtZWR2aWV3MzEwNzEiIHNob3dncmlkPSJmYWxzZSIgZml0LW1hcmdpbi10b3A9IjAiIGZpdC1tYXJnaW4tbGVmdD0iMCIgZml0LW1hcmdpbi1yaWdodD0iMCIgZml0LW1hcmdpbi1ib3R0b209IjAiIGlua3NjYXBlOnpvb209IjguMjQyNDI0MiIgaW5rc2NhcGU6Y3g9IjM0LjkzMjczNCIgaW5rc2NhcGU6Y3k9Ii01Ljg3NTA0NTgiIGlua3NjYXBlOndpbmRvdy14PSItOCIgaW5rc2NhcGU6d2luZG93LXk9Ii04IiBpbmtzY2FwZTp3aW5kb3ctbWF4aW1pemVkPSIxIiBpbmtzY2FwZTpjdXJyZW50LWxheWVyPSJMYXllcl8xIi8+JiN4YTsmI3hhOzxnIGlkPSJnMzEwNjgiIHRyYW5zZm9ybT0idHJhbnNsYXRlKC01NS44NjAwMDEsLTIwNi4xMSkiPiYjeGE7CTxkZWZzIGlkPSJkZWZzMzEwMzUiPiYjeGE7CQk8cmVjdCBpZD0iU1ZHSURfM18iIHg9IjU1Ljg2MDAwMSIgeT0iMjA2LjExIiB3aWR0aD0iMTkuODA5OTk5IiBoZWlnaHQ9IjE2Ljk4Ii8+JiN4YTsJPC9kZWZzPiYjeGE7CTxjbGlwUGF0aCBpZD0iU1ZHSURfNF8iPiYjeGE7CQk8dXNlIHhsaW5rOmhyZWY9IiNTVkdJRF8zXyIgc3R5bGU9Im92ZXJmbG93OnZpc2libGUiIGlkPSJ1c2UzMTAzNyIgeD0iMCIgeT0iMCIgd2lkdGg9IjEwMCUiIGhlaWdodD0iMTAwJSIvPiYjeGE7CTwvY2xpcFBhdGg+JiN4YTsJPGcgY2xpcC1wYXRoPSJ1cmwoI1NWR0lEXzRfKSIgaWQ9ImczMTA2NiI+JiN4YTsJCTxkZWZzIGlkPSJkZWZzMzEwNDEiPiYjeGE7CQkJPHJlY3QgaWQ9IlNWR0lEXzVfIiB4PSI1NS44NjAwMDEiIHk9IjIwNi4xMSIgd2lkdGg9IjE5LjgwOTk5OSIgaGVpZ2h0PSIxNi45OCIvPiYjeGE7CQk8L2RlZnM+JiN4YTsJCTxjbGlwUGF0aCBpZD0iU1ZHSURfNl8iPiYjeGE7CQkJPHVzZSB4bGluazpocmVmPSIjU1ZHSURfNV8iIHN0eWxlPSJvdmVyZmxvdzp2aXNpYmxlIiBpZD0idXNlMzEwNDMiIHg9IjAiIHk9IjAiIHdpZHRoPSIxMDAlIiBoZWlnaHQ9IjEwMCUiLz4mI3hhOwkJPC9jbGlwUGF0aD4mI3hhOwkJPHBhdGggc3R5bGU9ImZpbGw6IzRhOWY0OSIgZD0ibSA3My44LDIxOS4yIGMgMCwxLjg1IC00LjAxLDMuMzUgLTguOTcsMy4zNSAtNC45NiwwIC04Ljk3LC0xLjQ5IC04Ljk3LC0zLjM1IHYgLTIuMjcgSCA3My44IFoiIGNsaXAtcGF0aD0idXJsKCNTVkdJRF82XykiIGlkPSJwYXRoMzEwNDYiIGlua3NjYXBlOmNvbm5lY3Rvci1jdXJ2YXR1cmU9IjAiLz4mI3hhOwkJPHBhdGggc3R5bGU9ImZpbGw6I2FkYzgwYiIgZD0ibSA3My44LDIxNi45MyBjIDAsMS44NSAtNC4wMSwzLjQxIC04Ljk3LDMuNDEgLTQuOTYsMCAtOC45NywtMS41NSAtOC45NywtMy40MSAwLC0xLjg1IDQuMDEsLTMuMzUgOC45NywtMy4zNSA0Ljk2LDAgOC45NywxLjUgOC45NywzLjM1IHoiIGNsaXAtcGF0aD0idXJsKCNTVkdJRF82XykiIGlkPSJwYXRoMzEwNDgiIGlua3NjYXBlOmNvbm5lY3Rvci1jdXJ2YXR1cmU9IjAiLz4mI3hhOwkJPHBhdGggc3R5bGU9ImZpbGw6I2NiZTIzOCIgZD0ibSA2My42MywyMTMuNTggYyAtMS41LDAuMDYgLTIuOTksMC4zIC00LjQzLDAuNzggbCA0LjA3LDEuODUgYyAwLjQyLC0wLjEyIDAuNzgsLTAuMTggMS4yLC0wLjE4IHoiIGNsaXAtcGF0aD0idXJsKCNTVkdJRF82XykiIGlkPSJwYXRoMzEwNTAiIGlua3NjYXBlOmNvbm5lY3Rvci1jdXJ2YXR1cmU9IjAiLz4mI3hhOwkJPHBhdGggc3R5bGU9ImZpbGw6I2NiZTIzOCIgZD0ibSA3MC40NSwyMTkuNTYgLTQuMDcsLTEuOTEgYyAtMC40MiwwLjEyIC0wLjg0LDAuMTggLTEuMiwwLjI0IGwgMC44NCwyLjQ1IGMgMS41LC0wLjEyIDMsLTAuMzYgNC40MywtMC43OCB6IiBjbGlwLXBhdGg9InVybCgjU1ZHSURfNl8pIiBpZD0icGF0aDMxMDUyIiBpbmtzY2FwZTpjb25uZWN0b3ItY3VydmF0dXJlPSIwIi8+JiN4YTsJCTxwYXRoIHN0eWxlPSJmaWxsOiMwODdlMDYiIGQ9Im0gNjcuMjgsMjE2LjkzIGMgMCwwLjU0IC0xLjE0LDAuOTYgLTIuNDUsMC45NiAtMS4zMSwwIC0yLjQ1LC0wLjQyIC0yLjQ1LC0wLjk2IDAsLTAuNDggMS4xNCwtMC45IDIuNDUsLTAuOSAxLjMxLDAgMi40NSwwLjQyIDIuNDUsMC45IHoiIGNsaXAtcGF0aD0idXJsKCNTVkdJRF82XykiIGlkPSJwYXRoMzEwNTQiIGlua3NjYXBlOmNvbm5lY3Rvci1jdXJ2YXR1cmU9IjAiLz4mI3hhOwkJPHBhdGggc3R5bGU9ImZpbGw6IzA4NzlkYSIgZD0ibSA3My44LDIxMS43MyBjIDAsMS44NSAtNC4wMSwzLjM1IC04Ljk3LDMuMzUgLTQuOTYsMCAtOC45NywtMS40OSAtOC45NywtMy4zNSB2IC0yLjI3IEggNzMuOCBaIiBjbGlwLXBhdGg9InVybCgjU1ZHSURfNl8pIiBpZD0icGF0aDMxMDU2IiBpbmtzY2FwZTpjb25uZWN0b3ItY3VydmF0dXJlPSIwIi8+JiN4YTsJCTxwYXRoIHN0eWxlPSJmaWxsOiMxMWJkZjUiIGQ9Im0gNzMuOCwyMDkuNDYgYyAwLDEuODUgLTQuMDEsMy40MSAtOC45NywzLjQxIC00Ljk2LDAgLTguOTcsLTEuNTUgLTguOTcsLTMuNDEgMCwtMS44NSA0LjAxLC0zLjM1IDguOTcsLTMuMzUgNC45NiwwIDguOTcsMS41IDguOTcsMy4zNSB6IiBjbGlwLXBhdGg9InVybCgjU1ZHSURfNl8pIiBpZD0icGF0aDMxMDU4IiBpbmtzY2FwZTpjb25uZWN0b3ItY3VydmF0dXJlPSIwIi8+JiN4YTsJCTxwYXRoIHN0eWxlPSJmaWxsOiMzOWNlZjciIGQ9Im0gNjMuNjMsMjA2LjExIGMgLTEuNSwwLjA2IC0yLjk5LDAuMyAtNC40MywwLjc4IGwgNC4wNywxLjg1IGMgMC40MiwtMC4xMiAwLjg0LC0wLjE4IDEuMiwtMC4xOCB6IiBjbGlwLXBhdGg9InVybCgjU1ZHSURfNl8pIiBpZD0icGF0aDMxMDYwIiBpbmtzY2FwZTpjb25uZWN0b3ItY3VydmF0dXJlPSIwIi8+JiN4YTsJCTxwYXRoIHN0eWxlPSJmaWxsOiMzOWNlZjciIGQ9Im0gNzAuNDUsMjEyLjA5IC00LjA3LC0xLjkxIGMgLTAuNDIsMC4xMiAtMC44NCwwLjE4IC0xLjIsMC4yNCBsIDAuODQsMi40NSBjIDEuNSwtMC4xMiAzLC0wLjM2IDQuNDMsLTAuNzggeiIgY2xpcC1wYXRoPSJ1cmwoI1NWR0lEXzZfKSIgaWQ9InBhdGgzMTA2MiIgaW5rc2NhcGU6Y29ubmVjdG9yLWN1cnZhdHVyZT0iMCIvPiYjeGE7CQk8cGF0aCBzdHlsZT0iZmlsbDojMDM1MjkzIiBkPSJtIDY3LjI4LDIwOS40NiBjIDAsMC41NCAtMS4xNCwwLjk2IC0yLjQ1LDAuOTYgLTEuMzEsMCAtMi40NSwtMC40MiAtMi40NSwtMC45NiAwLC0wLjQ4IDEuMTQsLTAuOSAyLjQ1LC0wLjkgMS4zMSwwIDIuNDUsMC40MiAyLjQ1LDAuOSB6IiBjbGlwLXBhdGg9InVybCgjU1ZHSURfNl8pIiBpZD0icGF0aDMxMDY0IiBpbmtzY2FwZTpjb25uZWN0b3ItY3VydmF0dXJlPSIwIi8+JiN4YTsJPC9nPiYjeGE7PC9nPiYjeGE7PC9zdmc+;" vertex="1" parent="1">
          <mxGeometry x="189.45" y="550" width="50.55" height="44.93" as="geometry" />
        </mxCell>
        <mxCell id="e_-w4jl6vJnBpZlzhAYl-75" value="&lt;a style=&quot;font-size: 13px; text-decoration-line: none; vertical-align: middle; padding: 1px; cursor: pointer; font-family: az_ea_font, &amp;quot;Segoe UI&amp;quot;, az_font, system-ui, -apple-system, BlinkMacSystemFont, Roboto, Oxygen, Ubuntu, Cantarell, &amp;quot;Open Sans&amp;quot;, &amp;quot;Helvetica Neue&amp;quot;, sans-serif; text-align: left; background-color: rgb(237, 235, 233); outline: none !important;&quot; href=&quot;https://portal.azure.com/#@www.comunidadunir.net/resource/subscriptions/c8b29887-4024-4277-8a83-a951bff463b3/resourceGroups/CP2_RESOURCE_GROUP/providers/Microsoft.Compute/disks/podmanVM_OsDisk_1_fdcf6d4a84b94033bc22f67eb7d32a67&quot; tabindex=&quot;0&quot; class=&quot;fxc-gcflink-link&quot;&gt;podmanVM_OsDisk_1_fdcf6d4a84b94033bc22f67eb7d32a67&lt;/a&gt;" style="text;html=1;align=center;verticalAlign=middle;resizable=0;points=[];autosize=1;strokeColor=none;fillColor=none;" vertex="1" parent="1">
          <mxGeometry x="30" y="610" width="370" height="30" as="geometry" />
        </mxCell>
        <mxCell id="e_-w4jl6vJnBpZlzhAYl-76" value="Disco" style="text;html=1;align=center;verticalAlign=middle;resizable=0;points=[];autosize=1;strokeColor=none;fillColor=none;" vertex="1" parent="1">
          <mxGeometry x="189.45000000000002" y="514.5" width="50" height="30" as="geometry" />
        </mxCell>
        <mxCell id="e_-w4jl6vJnBpZlzhAYl-79" style="edgeStyle=orthogonalEdgeStyle;rounded=0;orthogonalLoop=1;jettySize=auto;html=1;exitX=1;exitY=0.5;exitDx=0;exitDy=0;entryX=0;entryY=0.5;entryDx=0;entryDy=0;" edge="1" parent="1" source="e_-w4jl6vJnBpZlzhAYl-78" target="e_-w4jl6vJnBpZlzhAYl-21">
          <mxGeometry relative="1" as="geometry" />
        </mxCell>
        <mxCell id="e_-w4jl6vJnBpZlzhAYl-80" style="edgeStyle=orthogonalEdgeStyle;rounded=0;orthogonalLoop=1;jettySize=auto;html=1;exitX=0.5;exitY=1;exitDx=0;exitDy=0;entryX=1;entryY=0.5;entryDx=0;entryDy=0;" edge="1" parent="1" source="e_-w4jl6vJnBpZlzhAYl-78" target="e_-w4jl6vJnBpZlzhAYl-70">
          <mxGeometry relative="1" as="geometry" />
        </mxCell>
        <mxCell id="e_-w4jl6vJnBpZlzhAYl-78" value="maseiraacr&#xa;&#xa;" style="shape=image;verticalLabelPosition=bottom;labelBackgroundColor=#ffffff;verticalAlign=top;aspect=fixed;imageAspect=0;image=data:image/svg+xml,PHN2ZyB4bWxuczp2PSJodHRwOi8vc2NoZW1hcy5taWNyb3NvZnQuY29tL3Zpc2lvLzIwMDMvU1ZHRXh0ZW5zaW9ucy8iIHhtbG5zOmRjPSJodHRwOi8vcHVybC5vcmcvZGMvZWxlbWVudHMvMS4xLyIgeG1sbnM6Y2M9Imh0dHA6Ly9jcmVhdGl2ZWNvbW1vbnMub3JnL25zIyIgeG1sbnM6cmRmPSJodHRwOi8vd3d3LnczLm9yZy8xOTk5LzAyLzIyLXJkZi1zeW50YXgtbnMjIiB4bWxuczpzdmc9Imh0dHA6Ly93d3cudzMub3JnLzIwMDAvc3ZnIiB4bWxucz0iaHR0cDovL3d3dy53My5vcmcvMjAwMC9zdmciIHhtbG5zOnNvZGlwb2RpPSJodHRwOi8vc29kaXBvZGkuc291cmNlZm9yZ2UubmV0L0RURC9zb2RpcG9kaS0wLmR0ZCIgeG1sbnM6aW5rc2NhcGU9Imh0dHA6Ly93d3cuaW5rc2NhcGUub3JnL25hbWVzcGFjZXMvaW5rc2NhcGUiIHZlcnNpb249IjEuMSIgaWQ9InN2ZzU2NjExIiBpbmtzY2FwZTp2ZXJzaW9uPSIwLjkyLjMgKDI0MDU1NDYsIDIwMTgtMDMtMTEpIiBzb2RpcG9kaTpkb2NuYW1lPSJhenVyZV9jb250YWluZXJfcmVnaXN0cnkuc3ZnIiB4PSIwcHgiIHk9IjBweCIgdmlld0JveD0iMCAwIDI2Ljk0IDIzLjYzIiB4bWw6c3BhY2U9InByZXNlcnZlIiB3aWR0aD0iMjYuOTQwMDAxIiBoZWlnaHQ9IjIzLjYyOTk5OSI+PG1ldGFkYXRhIGlkPSJtZXRhZGF0YTU5OTIiPjxyZGY6UkRGPjxjYzpXb3JrIHJkZjphYm91dD0iIj48ZGM6Zm9ybWF0PmltYWdlL3N2Zyt4bWw8L2RjOmZvcm1hdD48ZGM6dHlwZSByZGY6cmVzb3VyY2U9Imh0dHA6Ly9wdXJsLm9yZy9kYy9kY21pdHlwZS9TdGlsbEltYWdlIi8+PGRjOnRpdGxlLz48L2NjOldvcms+PC9yZGY6UkRGPjwvbWV0YWRhdGE+PGRlZnMgaWQ9ImRlZnM1OTkwIi8+JiN4YTs8ZmlsdGVyIGlkPSJmaWx0ZXJfMiI+JiN4YTsJPGZlR2F1c3NpYW5CbHVyIGlkPSJmZUdhdXNzaWFuQmx1cjU2NTI0IiBzdGREZXZpYXRpb249IjIiLz4mI3hhOzwvZmlsdGVyPiYjeGE7PHNvZGlwb2RpOm5hbWVkdmlldyBib3JkZXJjb2xvcj0iIzY2NjY2NiIgYm9yZGVyb3BhY2l0eT0iMSIgZml0LW1hcmdpbi1ib3R0b209IjAiIGZpdC1tYXJnaW4tbGVmdD0iMCIgZml0LW1hcmdpbi1yaWdodD0iMCIgZml0LW1hcmdpbi10b3A9IjAiIGdyaWR0b2xlcmFuY2U9IjEwIiBndWlkZXRvbGVyYW5jZT0iMTAiIGlkPSJuYW1lZHZpZXc1NjYxMyIgaW5rc2NhcGU6Y3VycmVudC1sYXllcj0ic3ZnNTY2MTEiIGlua3NjYXBlOmN4PSItMy4yMzMzOTE1IiBpbmtzY2FwZTpjeT0iMy4zOTE1MjcxIiBpbmtzY2FwZTpwYWdlb3BhY2l0eT0iMCIgaW5rc2NhcGU6cGFnZXNoYWRvdz0iMiIgaW5rc2NhcGU6d2luZG93LWhlaWdodD0iMTAxNyIgaW5rc2NhcGU6d2luZG93LW1heGltaXplZD0iMSIgaW5rc2NhcGU6d2luZG93LXdpZHRoPSIxOTIwIiBpbmtzY2FwZTp3aW5kb3cteD0iLTgiIGlua3NjYXBlOndpbmRvdy15PSItOCIgaW5rc2NhcGU6em9vbT0iMTUuMjM5OTUyIiBvYmplY3R0b2xlcmFuY2U9IjEwIiBwYWdlY29sb3I9IiNmZmZmZmYiIHNob3dncmlkPSJmYWxzZSI+JiN4YTsJPC9zb2RpcG9kaTpuYW1lZHZpZXc+JiN4YTs8djpkb2N1bWVudFByb3BlcnRpZXMgdjpsYW5nSUQ9IjIwNTciIHY6bWV0cmljPSJ0cnVlIiB2OnZpZXdNYXJrdXA9ImZhbHNlIi8+JiN4YTsmI3hhOzxwYXRoIGlkPSJwYXRoNTY1MzciIGlua3NjYXBlOmNvbm5lY3Rvci1jdXJ2YXR1cmU9IjAiIHN0eWxlPSJmaWxsOiM1OWI0ZDkiIGQ9Ik0gOC4xOCwxOC4wMyBIIDQuNDMgQyAxLjkzLDE3LjM5IDAsMTUuMzYgMCwxMi42NyAwLDEwLjQ0IDEuNCw4LjQgMy4yOSw3LjYzIDMuMjcsNy40IDMuMjYsNy4xNiAzLjI2LDYuOTMgMy4yNiwzLjEgNi4yNywwIDkuOTgsMCBjIDIuMDQsMCAzLjk3LDAuOTUgNS4yNCwyLjU5IDAuNzYsLTAuNCAxLjYsLTAuNiAyLjQ1LC0wLjYgMi45NCwwIDUuNDksMi42OSA1LjU5LDUuNyBMIDEzLjIyLDMuNDIgOC4xOCw2LjU1IFoiLz4mI3hhOyYjeGE7PHBhdGggaWQ9InBhdGg1NjU0NyIgaW5rc2NhcGU6Y29ubmVjdG9yLWN1cnZhdHVyZT0iMCIgc3R5bGU9ImZpbGw6Izk1OTU5NSIgZD0iTSAyNi45NCwyMC44OCAxMy4xLDIzLjYgMTMuMTYsMTMuNTggMjYuOTQsMTYuMjEgWiBNIDEzLjE1LDQuNzMgMjYuOTQsMTAuMDcgdiA1LjM2IEwgMTMuMTcsMTIuNDEgWiIvPiYjeGE7JiN4YTsmI3hhOzxwYXRoIGlkPSJwYXRoNTY1NTkiIGlua3NjYXBlOmNvbm5lY3Rvci1jdXJ2YXR1cmU9IjAiIHN0eWxlPSJmaWxsOiNiM2I0YjUiIGQ9Ik0gMTMuMTcsMTIuNCA5LjQyLDE0LjIgViA3LjA2IGwgMy43MywtMi4zMyB6IG0gMTMuMTQsMi40MSAtMTIuNSwtMi45NCB2IC02LjQgbCAxMi41LDQuNzUgeiBtIC02Ljg4LC0yLjMgMS4yNSwwLjM2IFYgOC42OSBMIDE5LjQzLDguMjQgWiBNIDE4LjE4LDcuODMgMTYuOTMsNy4zNyB2IDQuNDYgbCAxLjI1LDAuMzYgeiBtIDMuNzUsNS4zOSAxLjI0LDAuMzMgMC4wMiwtMy45NyAtMS4yNiwtMC40NCB6IG0gLTcuNSwtMi4wNSAxLjI1LDAuMzMgViA2Ljk0IEwgMTQuNDMsNi41MiBaIG0gMTEuMjUsLTAuNzEgLTEuMjUsLTAuNDUgdiAzLjg4IGwgMS4yNSwwLjM1IHogbSAtMTEuODcsNC4xOSB2IDguMjYgbCAxMi41LC0yLjM2IHYgLTMuOTIgeiBtIDAuNjIsNy4yOSB2IC02LjM1IGwgMS4yNSwwLjE2IHYgNS45OCB6IG0gMy43NSwtMC42NSAtMS4yNSwwLjI0IHYgLTUuNjIgbCAxLjI1LDAuMTkgeiBtIDEuMjUsLTAuMTggdiAtNC44OCBsIDEuMjUsMC4xNiB2IDQuNDggeiBtIDMuNzUsLTAuNjggLTEuMjUsMC4yMiB2IC00LjEgbCAxLjI1LDAuMTkgeiBtIDIuNTUsLTAuNDIgLTEuMywwLjI0IHYgLTMuMzggbCAxLjIxLDAuMTYgeiIvPiYjeGE7JiN4YTsmI3hhOzxwYXRoIGlkPSJwYXRoNTY1NjkiIGlua3NjYXBlOmNvbm5lY3Rvci1jdXJ2YXR1cmU9IjAiIHN0eWxlPSJmaWxsOiM5NTk1OTUiIGQ9Im0gMTAuNjksMTIuMjggLTAuNjMsMC4zOCBWIDcuNTkgbCAwLjYzLC0wLjM1IHogbSAxLjI0LC01Ljc4IC0wLjYyLDAuNDQgLTAuMDEsNC45MyAwLjYzLC0wLjM1IHoiLz4mI3hhOyYjeGE7PHBhdGggaWQ9InBhdGg1NjU3OSIgaW5rc2NhcGU6Y29ubmVjdG9yLWN1cnZhdHVyZT0iMCIgc3R5bGU9ImZpbGw6I2IzYjRiNSIgZD0iTSA5LjQyLDIxLjMyIDkuNCwxNS40NiAxMy4xNiwxMy41OSAxMy4xOCwyMy42MyBaIi8+JiN4YTsmI3hhOyYjeGE7PHBhdGggaWQ9InBhdGg1NjU4OSIgaW5rc2NhcGU6Y29ubmVjdG9yLWN1cnZhdHVyZT0iMCIgc3R5bGU9ImZpbGw6Izk1OTU5NSIgZD0iTSAxMC42MSwyMS4zIDEwLjA0LDIxIHYgLTQuOTUgbCAwLjU3LC0wLjI2IHogbSAxLjM0LC02LjEzIC0wLjYyLDAuMjggLTAuMDIsNi4yNCAwLjY0LDAuMzQgeiIvPiYjeGE7JiN4YTs8cGF0aCBpZD0icGF0aDU2NTk3IiBpbmtzY2FwZTpjb25uZWN0b3ItY3VydmF0dXJlPSIwIiBzdHlsZT0iZmlsbDojN2E3YTdhIiBkPSJtIDI1LjY3LDEwLjg4IC0xMS4yNCwtMy44OSAwLjAyLC0wLjUgMTEuMjIsMy45OCB6IG0gLTAuMDMsNi4xNSAtMTEuMTksLTEuNDQgdiAwLjUgbCAxMS4yLDEuMzYgeiBNIDExLjkzLDcuMTcgViA2LjUzIEwgMTAuMTIsNy41NyAxMC4wOSw4LjEgWiBtIC0xLjg5LDkuMjUgMS45MSwtMC43MSB2IC0wLjU1IGwgLTEuOTEsMC44OSB6Ii8+JiN4YTsmI3hhOyYjeGE7PC9zdmc+;" vertex="1" parent="1">
          <mxGeometry x="430" y="123.85" width="92" height="83.15" as="geometry" />
        </mxCell>
        <mxCell id="f-_vX9jzNNcHqg1m3YMI-1" value="&lt;h1 style=&quot;font-size: 13px;&quot;&gt;Caso Practico 2&lt;br style=&quot;&quot;&gt;Esquema de la red y sus diferentes componentes&lt;br style=&quot;&quot;&gt;Oscar Alvarez Oliveira&lt;br style=&quot;&quot;&gt;v1.0&lt;/h1&gt;" style="text;html=1;strokeColor=none;fillColor=none;spacing=5;spacingTop=-20;whiteSpace=wrap;overflow=hidden;rounded=0;" vertex="1" parent="1">
          <mxGeometry x="7.5" y="760" width="532.5" height="62" as="geometry" />
        </mxCell>
      </root>
    </mxGraphModel>
  </diagram>
</mxfile>
